<svg width="354" height="354" viewBox="0 0 354 354" fill="none" xmlns="http://www.w3.org/2000/svg">
<path d="M12.5529 324.554H341.065" stroke="#263238" stroke-linecap="round" stroke-linejoin="round"/>
<path d="M260.827 24.4048H196.116V267.61H260.827V24.4048Z" stroke="#263238" stroke-linecap="round" stroke-linejoin="round"/>
<path d="M343.026 24.4048H194.473C194.212 24.4048 193.962 24.3011 193.778 24.1165C193.593 23.932 193.489 23.6816 193.489 23.4206C193.489 23.1596 193.593 22.9093 193.778 22.7248C193.962 22.5402 194.212 22.4365 194.473 22.4365H343.026C343.288 22.4365 343.539 22.54 343.724 22.7243C343.91 22.9087 344.015 23.159 344.017 23.4206C344.015 23.6823 343.91 23.9326 343.724 24.117C343.539 24.3013 343.288 24.4048 343.026 24.4048Z" fill="#263238" stroke="#263238" stroke-linecap="round" stroke-linejoin="round"/>
<path d="M260.728 207.798H340.052" stroke="#263238" stroke-linecap="round" stroke-linejoin="round"/>
<path d="M260.728 203.076H340.052" stroke="#263238" stroke-linecap="round" stroke-linejoin="round"/>
<path d="M260.728 111.51H340.052" stroke="#263238" stroke-linecap="round" stroke-linejoin="round"/>
<path d="M260.728 115.666H340.052" stroke="#263238" stroke-linecap="round" stroke-linejoin="round"/>
<path d="M200.81 24.7658V43.4429" stroke="#263238" stroke-linecap="round" stroke-linejoin="round"/>
<path d="M203.84 27.5341V148.071" stroke="#263238" stroke-linecap="round" stroke-linejoin="round"/>
<path d="M211.189 24.5393V39.0604" stroke="#263238" stroke-linecap="round" stroke-linejoin="round"/>
<path d="M211.189 42.5154V50.5866" stroke="#263238" stroke-linecap="round" stroke-linejoin="round"/>
<path d="M254.2 45.7439V49.206" stroke="#263238" stroke-linecap="round" stroke-linejoin="round"/>
<path d="M254.2 24.7658V42.5154" stroke="#263238" stroke-linecap="round" stroke-linejoin="round"/>
<path d="M219.183 63.4934V66.2617" stroke="#263238" stroke-linecap="round" stroke-linejoin="round"/>
<path d="M219.183 27.7678V60.265" stroke="#263238" stroke-linecap="round" stroke-linejoin="round"/>
<path d="M223.94 27.5341V37.6798" stroke="#263238" stroke-linecap="round" stroke-linejoin="round"/>
<path d="M248.579 27.5341V37.6798" stroke="#263238" stroke-linecap="round" stroke-linejoin="round"/>
<path d="M229.994 24.5393V111.255" stroke="#263238" stroke-linecap="round" stroke-linejoin="round"/>
<path d="M237.987 24.9995V29.6086" stroke="#263238" stroke-linecap="round" stroke-linejoin="round"/>
<path d="M242.745 24.9995V86.4751" stroke="#263238" stroke-linecap="round" stroke-linejoin="round"/>
<path d="M235.396 28.6882V41.595" stroke="#263238" stroke-linecap="round" stroke-linejoin="round"/>
<path d="M276.049 98.8793L274.378 100.961" stroke="#263238" stroke-linecap="round" stroke-linejoin="round"/>
<path d="M311.017 57.1144L278.747 95.5163" stroke="#263238" stroke-linecap="round" stroke-linejoin="round"/>
<path d="M303.782 79.3668L291.377 94.072" stroke="#263238" stroke-linecap="round" stroke-linejoin="round"/>
<path d="M276.049 190.445L274.378 192.534" stroke="#263238" stroke-linecap="round" stroke-linejoin="round"/>
<path d="M312.242 145.409L278.747 187.082" stroke="#263238" stroke-linecap="round" stroke-linejoin="round"/>
<path d="M303.782 170.94L291.377 185.638" stroke="#263238" stroke-linecap="round" stroke-linejoin="round"/>
<path d="M317.149 115.701V201.815" stroke="#263238" stroke-linecap="round" stroke-linejoin="round"/>
<path d="M317.149 24.0012V111.34" stroke="#263238" stroke-linecap="round" stroke-linejoin="round"/>
<path d="M321.439 115.808V201.815" stroke="#263238" stroke-linecap="round" stroke-linejoin="round"/>
<path d="M321.439 24.0012V111.298" stroke="#263238" stroke-linecap="round" stroke-linejoin="round"/>
<path d="M170.713 94.9641H24.7163V98.5748H170.713V94.9641Z" stroke="#263238" stroke-linecap="round" stroke-linejoin="round"/>
<path d="M185.17 128.934H10.266V132.545H185.17V128.934Z" stroke="#263238" stroke-linecap="round" stroke-linejoin="round"/>
<path d="M39.4143 54.3956V94.872H73.632V54.3956H39.4143ZM72.2584 93.2507H40.7807V56.0099H72.2584V93.2507Z" fill="#263238" stroke="#263238" stroke-linecap="round" stroke-linejoin="round"/>
<path d="M97.4774 100.989V128.601H120.841V100.989H97.4774ZM119.879 127.497H98.412V102.087H119.886L119.879 127.497Z" fill="#263238" stroke="#263238" stroke-linecap="round" stroke-linejoin="round"/>
<path d="M80.8536 70.8V94.872H101.244V70.8H80.8536ZM98.7944 92.04H83.275V73.632H98.7944V92.04Z" fill="#263238" stroke="#263238" stroke-linecap="round" stroke-linejoin="round"/>
<path d="M21.1055 104.501V128.573H41.4676V104.501H21.1055ZM39.0462 125.741H23.5268V107.368H39.0462V125.741Z" fill="#263238" stroke="#263238" stroke-linecap="round" stroke-linejoin="round"/>
<path d="M47.1245 112.919V128.594H60.3783V112.919H47.1245ZM58.7994 126.732H48.7034V114.788H58.7994V126.732Z" fill="#263238" stroke="#263238" stroke-linecap="round" stroke-linejoin="round"/>
<path d="M76.5135 112.919V128.594H89.7673V112.919H76.5135ZM88.1885 126.732H78.0924V114.788H88.1885V126.732Z" fill="#263238" stroke="#263238" stroke-linecap="round" stroke-linejoin="round"/>
<path d="M127.397 84.0892H135.115C135.597 84.0892 136.06 84.2809 136.401 84.6221C136.743 84.9633 136.934 85.4261 136.934 85.9087V94.872H125.606V85.9158C125.604 85.4369 125.791 84.9765 126.127 84.6345C126.462 84.2926 126.919 84.0966 127.397 84.0892Z" stroke="#263238" stroke-linecap="round" stroke-linejoin="round"/>
<path d="M134.683 81.5474H127.829V84.0113H134.683V81.5474Z" stroke="#263238" stroke-linecap="round" stroke-linejoin="round"/>
<path d="M132.651 81.4696C133.675 78.8993 134.882 76.4055 136.262 74.0072C137.954 71.3522 142.046 69.1858 144.694 69.1858C147.342 69.1858 152.404 72.0744 155.781 75.933" stroke="#263238" stroke-linecap="round" stroke-linejoin="round"/>
<path d="M142.046 69.9079C142.046 69.9079 143.462 65.0935 147.83 63.1607C152.199 61.2278 156.503 61.9571 157.226 61.2349" stroke="#263238" stroke-linecap="round" stroke-linejoin="round"/>
<path d="M130.385 81.42C130.377 79.4506 129.734 77.5365 128.552 75.9613C126.626 73.5541 122.052 72.5842 119.156 74.5453C117.322 75.808 115.697 77.3514 114.342 79.119" stroke="#263238" stroke-linecap="round" stroke-linejoin="round"/>
<path d="M122.774 73.7665C122.774 73.7665 119.652 76.8959 118.944 80.004C118.544 82.1641 118.626 84.3859 119.185 86.5105" stroke="#263238" stroke-linecap="round" stroke-linejoin="round"/>
<path d="M136.262 74.0072C138.754 69.3274 138.202 63.8404 140.078 58.9764C142.018 53.9567 146.393 51.245 151.682 50.8769" stroke="#263238" stroke-linecap="round" stroke-linejoin="round"/>
<path d="M114.753 78.5172C114.753 78.5172 112.77 78.5172 112.112 80.096C111.716 81.1008 111.579 82.1893 111.715 83.2608C112.274 83.1357 112.793 82.8771 113.23 82.5071C113.666 82.1372 114.007 81.667 114.222 81.1368C115.015 79.296 114.753 78.5172 114.753 78.5172Z" fill="#5B7DE0"/>
<path d="M118.378 74.9135C118.378 74.9135 117.613 73.0868 115.9 73.0939C114.819 73.1143 113.762 73.4091 112.827 73.9506C113.157 74.4163 113.594 74.7953 114.102 75.0554C114.61 75.3155 115.173 75.449 115.744 75.4445C117.748 75.4657 118.378 74.9135 118.378 74.9135Z" fill="#5B7DE0"/>
<path d="M118.349 82.6236C118.349 82.6236 116.643 81.6182 115.27 82.6236C114.415 83.2845 113.743 84.1519 113.315 85.1441C113.858 85.3221 114.436 85.3661 114.999 85.2724C115.563 85.1787 116.095 84.95 116.551 84.606C118.172 83.4378 118.349 82.6236 118.349 82.6236Z" fill="#5B7DE0"/>
<path d="M119.086 85.8804C119.086 85.8804 117.592 87.1831 118.13 88.8044C118.492 89.8234 119.106 90.7342 119.914 91.4524C120.252 90.9934 120.474 90.4595 120.562 89.8962C120.649 89.3329 120.6 88.7567 120.417 88.2168C119.801 86.3052 119.086 85.8804 119.086 85.8804Z" fill="#5B7DE0"/>
<path d="M119.008 78.9774C119.008 78.9774 118.505 80.889 119.864 81.9297C120.735 82.5682 121.753 82.975 122.824 83.1121C122.844 82.5412 122.726 81.9738 122.479 81.4584C122.233 80.9431 121.865 80.4951 121.408 80.1527C119.836 78.9207 119.008 78.9774 119.008 78.9774Z" fill="#5B7DE0"/>
<path d="M120.792 73.3134C120.792 73.3134 121.387 71.4301 120.084 70.3186C119.246 69.6383 118.25 69.1805 117.188 68.9875C117.138 69.5551 117.226 70.1263 117.444 70.6526C117.663 71.1789 118.005 71.6448 118.441 72.0107C119.956 73.3276 120.792 73.3134 120.792 73.3134Z" fill="#5B7DE0"/>
<path d="M124.339 73.5046C124.339 73.5046 125.804 72.1806 125.238 70.5593C124.855 69.5567 124.227 68.6659 123.411 67.968C123.08 68.4321 122.866 68.9692 122.787 69.5338C122.709 70.0983 122.767 70.6736 122.958 71.2106C123.61 73.0939 124.339 73.5046 124.339 73.5046Z" fill="#5B7DE0"/>
<path d="M144.382 65.5891C144.382 65.5891 145.848 64.2651 145.282 62.6509C144.903 61.638 144.274 60.737 143.455 60.0313C143.124 60.4968 142.91 61.0355 142.833 61.6014C142.755 62.1673 142.816 62.7436 143.009 63.281C143.653 65.1785 144.382 65.5891 144.382 65.5891Z" fill="#5B7DE0"/>
<path d="M150.188 62.5589C150.188 62.5589 151.654 61.2349 151.087 59.6136C150.707 58.6034 150.079 57.705 149.261 57.0011C148.93 57.4652 148.715 58.0023 148.637 58.5669C148.558 59.1314 148.616 59.7067 148.807 60.2437C149.459 62.1482 150.188 62.5589 150.188 62.5589Z" fill="#5B7DE0"/>
<path d="M155.052 61.6314C155.052 61.6314 156.518 60.3074 155.951 58.6932C155.57 57.6815 154.942 56.7811 154.124 56.0736C153.793 56.5391 153.58 57.0778 153.502 57.6437C153.425 58.2096 153.485 58.7858 153.678 59.3233C154.344 61.2208 155.052 61.6314 155.052 61.6314Z" fill="#5B7DE0"/>
<path d="M122.222 78.7438C122.222 78.7438 124.204 78.68 124.813 77.08C125.178 76.0621 125.278 74.9681 125.104 73.901C124.552 74.0427 124.042 74.3155 123.618 74.6964C123.194 75.0773 122.868 75.555 122.668 76.0888C121.939 77.965 122.222 78.7438 122.222 78.7438Z" fill="#5B7DE0"/>
<path d="M154.139 66.0564C154.139 66.0564 154.578 64.1306 153.183 63.1324C152.294 62.5186 151.263 62.141 150.188 62.035C150.184 62.6056 150.317 63.1688 150.577 63.6767C150.837 64.1846 151.216 64.6221 151.682 64.9519C153.303 66.1343 154.139 66.0564 154.139 66.0564Z" fill="#5B7DE0"/>
<path d="M158.882 65.929C158.882 65.929 159.328 63.9961 157.934 62.9978C157.044 62.3854 156.014 62.0079 154.939 61.9004C154.938 62.4742 155.077 63.0395 155.343 63.5476C155.61 64.0557 155.996 64.4915 156.468 64.8174C158.054 66.0068 158.882 65.929 158.882 65.929Z" fill="#5B7DE0"/>
<path d="M116.969 80.981C116.969 80.981 118.717 80.0606 118.562 78.3544C118.443 77.2798 118.056 76.2524 117.436 75.3666C117.001 75.7361 116.662 76.2052 116.447 76.7341C116.233 77.263 116.149 77.8358 116.204 78.4039C116.367 80.4076 116.969 80.981 116.969 80.981Z" fill="#5B7DE0"/>
<path d="M137.147 78.0853C137.147 78.0853 138.895 77.1578 138.74 75.4516C138.621 74.377 138.234 73.3496 137.614 72.4638C137.179 72.8333 136.84 73.3024 136.625 73.8313C136.411 74.3602 136.327 74.933 136.382 75.5011C136.545 77.5048 137.147 78.0853 137.147 78.0853Z" fill="#5B7DE0"/>
<path d="M133.352 71.9328C133.352 71.9328 131.936 73.3488 132.552 74.9064C132.965 75.905 133.625 76.782 134.47 77.4552C134.784 76.9792 134.978 76.4346 135.036 75.8676C135.094 75.3006 135.014 74.7279 134.803 74.1984C134.088 72.3222 133.352 71.9328 133.352 71.9328Z" fill="#5B7DE0"/>
<path d="M142.032 75.1825C142.032 75.1825 143.781 74.255 143.625 72.5488C143.506 71.4753 143.116 70.4496 142.492 69.5681C142.059 69.9376 141.722 70.4059 141.509 70.9334C141.296 71.4609 141.213 72.032 141.267 72.5983C141.423 74.602 142.032 75.1825 142.032 75.1825Z" fill="#5B7DE0"/>
<path d="M147.972 75.1896C147.972 75.1896 149.43 73.8515 148.843 72.2372C148.452 71.2294 147.814 70.3359 146.988 69.6389C146.653 70.1097 146.439 70.6552 146.364 71.2278C146.289 71.8004 146.355 72.3827 146.556 72.924C147.207 74.786 147.972 75.1896 147.972 75.1896Z" fill="#5B7DE0"/>
<path d="M152.553 77.6959C152.553 77.6959 154.011 76.3578 153.424 74.7436C153.033 73.7357 152.395 72.8422 151.569 72.1452C151.243 72.6137 151.036 73.1539 150.965 73.7197C150.893 74.2855 150.96 74.8602 151.158 75.3949C151.823 77.2924 152.553 77.6959 152.553 77.6959Z" fill="#5B7DE0"/>
<path d="M158.465 72.0107C158.465 72.0107 157.218 70.4814 155.576 70.9699C154.545 71.2975 153.614 71.8823 152.871 72.6691C153.32 73.0216 153.847 73.2604 154.408 73.3652C154.969 73.47 155.547 73.4377 156.093 73.2709C158.019 72.7187 158.465 72.0107 158.465 72.0107Z" fill="#5B7DE0"/>
<path d="M152.255 54.8134C152.255 54.8134 152.255 52.838 150.662 52.1796C149.656 51.7879 148.568 51.6564 147.498 51.7973C147.624 52.3543 147.883 52.8725 148.253 53.3077C148.623 53.7429 149.092 54.0822 149.622 54.2965C151.462 55.0824 152.255 54.8134 152.255 54.8134Z" fill="#5B7DE0"/>
<path d="M149.877 46.7846C149.877 46.7846 147.915 47.0537 147.476 48.7104C147.219 49.7611 147.234 50.86 147.519 51.9035C148.054 51.7046 148.533 51.3792 148.915 50.9551C149.297 50.531 149.571 50.0208 149.714 49.468C150.245 47.5351 149.877 46.7846 149.877 46.7846Z" fill="#5B7DE0"/>
<path d="M146.846 57.4542C146.846 57.4542 146.846 55.4718 145.26 54.8204C144.253 54.4233 143.162 54.2893 142.089 54.431C142.215 54.9881 142.474 55.5063 142.844 55.9415C143.213 56.3767 143.683 56.7159 144.213 56.9303C146.06 57.7162 146.846 57.4542 146.846 57.4542Z" fill="#5B7DE0"/>
<path d="M144.467 49.4184C144.467 49.4184 142.506 49.6945 142.067 51.3512C141.815 52.4 141.829 53.4955 142.11 54.5372C142.644 54.339 143.123 54.0147 143.505 53.5919C143.887 53.1691 144.161 52.6603 144.305 52.1088C144.836 50.1689 144.467 49.4184 144.467 49.4184Z" fill="#5B7DE0"/>
<path d="M144.828 60.7322C144.828 60.7322 143.604 59.1817 141.954 59.649C140.92 59.9592 139.982 60.5268 139.228 61.2986C139.67 61.6585 140.193 61.9063 140.751 62.0209C141.309 62.1356 141.887 62.1137 142.435 61.9571C144.375 61.4332 144.828 60.7322 144.828 60.7322Z" fill="#5B7DE0"/>
<path d="M137.989 55.932C137.989 55.932 136.616 57.348 137.281 58.9268C137.729 59.9105 138.419 60.7652 139.285 61.4119C139.582 60.9248 139.758 60.3729 139.796 59.8034C139.834 59.2338 139.734 58.6635 139.504 58.141C138.768 56.2577 137.989 55.932 137.989 55.932Z" fill="#5B7DE0"/>
<path d="M143.377 67.4582C143.377 67.4582 142.152 65.9077 140.503 66.375C139.47 66.6877 138.533 67.255 137.777 68.0246C138.219 68.3845 138.741 68.6323 139.3 68.7469C139.858 68.8616 140.436 68.8397 140.984 68.6831C142.924 68.1592 143.377 67.4582 143.377 67.4582Z" fill="#5B7DE0"/>
<path d="M136.538 62.6226C136.538 62.6226 135.164 64.0386 135.83 65.6174C136.278 66.6011 136.967 67.4558 137.833 68.1025C138.131 67.6154 138.306 67.0635 138.345 66.494C138.383 65.9244 138.283 65.3541 138.053 64.8316C137.295 63.012 136.538 62.6226 136.538 62.6226Z" fill="#5B7DE0"/>
<path d="M152.928 69.1079C152.928 69.1079 151.675 67.5786 150.032 68.0671C149.001 68.3947 148.07 68.9795 147.328 69.7663C147.776 70.1188 148.304 70.3576 148.865 70.4624C149.426 70.5672 150.003 70.5349 150.549 70.3681C152.482 69.8159 152.928 69.1079 152.928 69.1079Z" fill="#5B7DE0"/>
<path d="M149.763 65.844C149.763 65.844 148.51 64.3076 146.868 64.8032C145.838 65.1308 144.908 65.7128 144.163 66.4953C144.611 66.8491 145.138 67.0892 145.699 67.1952C146.26 67.3012 146.838 67.27 147.384 67.1042C149.317 66.552 149.763 65.844 149.763 65.844Z" fill="#5B7DE0"/>
<path d="M162.132 60.6685C162.132 60.6685 160.879 59.1392 159.236 59.6278C158.205 59.9554 157.274 60.5401 156.532 61.327C156.98 61.6795 157.508 61.9183 158.069 62.0231C158.63 62.1279 159.207 62.0955 159.753 61.9288C161.714 61.3765 162.132 60.6685 162.132 60.6685Z" fill="#5B7DE0"/>
<path d="M156.751 50.268C156.751 50.268 155.498 48.7316 153.855 49.2202C152.828 49.5508 151.9 50.1352 151.158 50.9194C151.605 51.2719 152.131 51.5114 152.691 51.6174C153.25 51.7234 153.827 51.6928 154.372 51.5282C156.305 50.976 156.751 50.268 156.751 50.268Z" fill="#5B7DE0"/>
<path d="M156.772 81.42C156.772 81.42 158.231 80.0819 157.643 78.4747C157.255 77.4652 156.617 76.571 155.788 75.8764C155.463 76.3449 155.256 76.8851 155.185 77.4509C155.113 78.0167 155.179 78.5914 155.378 79.1261C156.043 80.981 156.772 81.42 156.772 81.42Z" fill="#5B7DE0"/>
<path d="M138.152 128.594H145.699C148.255 126.859 149.997 123.411 149.997 119.44C150.025 117.047 149.345 114.7 148.043 112.692H135.809C134.506 114.7 133.826 117.047 133.854 119.44C133.854 123.411 135.596 126.859 138.152 128.594Z" stroke="#263238" stroke-linecap="round" stroke-linejoin="round"/>
<path d="M162.529 102.433H157.707V128.934H162.529V102.433Z" stroke="#263238" stroke-linecap="round" stroke-linejoin="round"/>
<path d="M167.824 102.433H163.003V128.934H167.824V102.433Z" stroke="#263238" stroke-linecap="round" stroke-linejoin="round"/>
<path d="M173.127 102.433H168.306V128.934H173.127V102.433Z" stroke="#263238" stroke-linecap="round" stroke-linejoin="round"/>
<path d="M41.0145 250.703C39.1004 246.681 38.6691 242.112 39.7967 237.803C41.6658 230.454 42.3455 231.686 40.3985 227.452C38.4515 223.218 36.7665 222.354 37.9276 218.722C39.0887 215.09 41.0853 209.412 40.3631 205.978C39.641 202.545 38.0692 201.129 38.7772 197.412C39.4852 193.695 41.6729 191.903 40.6038 187.847C39.5348 183.79 37.6656 183.981 38.3736 180.257C39.0816 176.533 40.0728 176.25 39.7896 172.887C39.5064 169.524 40.2852 167.931 40.2852 167.931C40.2852 167.931 41.5667 173.191 42.4092 176.101C43.2518 179.011 43.3721 180.689 42.9686 182.813C42.565 184.937 47.3794 188.618 47.521 190.296C47.6626 191.974 48.6892 193.836 47.0891 197.376C45.489 200.916 45.0855 203.04 46.0059 205.426C46.9263 207.812 47.9246 207.444 47.0112 212.23C46.0979 217.016 43.3296 217.03 45.3828 220.726C47.436 224.422 48.668 225.208 47.7192 227.806C46.7705 230.404 45.2696 233.399 45.8501 235.162C46.1879 236.038 46.6 236.884 47.082 237.69C48.2596 239.778 48.6538 242.218 48.1936 244.572L47.9175 246.023L48.8166 253.351L44.4483 256.926C44.4483 256.926 42.4234 255.383 41.0145 250.703Z" fill="#5B7DE0"/>
<path d="M35.9735 251.34C34.7091 249.934 33.7379 248.29 33.1167 246.504C32.4955 244.718 32.2367 242.827 32.3556 240.939C32.8087 234.61 33.715 235.516 31.0033 232.351C28.2917 229.187 26.4792 228.741 26.9323 225.576C27.3855 222.411 28.2917 217.441 26.9323 214.729C25.573 212.018 23.7676 211.111 23.7676 207.947C23.7676 204.782 25.5801 202.991 23.7676 199.812C21.9551 196.633 20.1497 197.1 20.1497 193.935C20.1497 190.771 21.0559 188.059 20.1497 185.347C19.2435 182.636 19.8382 183.223 19.8382 183.223C19.8382 183.223 21.9622 187.634 23.3145 189.893C24.6667 192.151 25.1269 193.511 25.1269 195.316C25.1269 197.121 30.5502 199.387 31.0033 200.739C31.4565 202.092 32.8087 203.458 31.9025 206.616C30.9963 209.773 31.0033 211.572 32.3556 213.398C33.7079 215.225 34.6141 214.758 34.6141 218.822C34.6141 222.885 31.9025 223.339 34.6141 226.057C37.3258 228.776 38.6851 229.215 38.232 231.481C37.7789 233.746 36.8797 236.437 37.7789 237.803C38.1198 238.277 38.4987 238.722 38.9117 239.134C40.7915 241.071 41.845 243.663 41.8499 246.363L44.1084 252.239L40.4905 255.857C40.4905 255.857 38.232 254.951 35.9735 251.34Z" fill="#5B7DE0"/>
<path d="M61.7376 251.34C63 249.933 63.9695 248.289 64.5895 246.503C65.2095 244.717 65.4674 242.826 65.3484 240.94C64.9023 234.61 63.9961 235.516 66.7077 232.351C69.4194 229.187 71.2248 228.741 70.7787 225.576C70.3327 222.411 69.4194 217.441 70.7787 214.729C72.1381 212.018 73.9364 211.111 73.9364 207.947C73.9364 204.782 72.131 202.991 73.9364 199.812C75.7418 196.633 77.5543 197.1 77.5543 193.935C77.5543 190.771 76.6481 188.059 77.5543 185.347C78.4605 182.636 77.3773 184.186 77.3773 184.186C77.3773 184.186 75.7489 187.606 74.3895 189.85C73.0302 192.095 72.5841 193.468 72.5841 195.274C72.5841 197.079 67.1609 199.345 66.7077 200.697C66.2546 202.049 64.9023 203.416 65.8015 206.573C66.7007 209.731 66.7077 211.529 65.3484 213.356C63.989 215.182 63.0899 214.715 63.0899 218.779C63.0899 222.843 65.8015 223.296 63.0899 226.015C60.3782 228.734 59.0259 229.173 59.4791 231.438C59.9322 233.704 60.8313 236.394 59.9251 237.761C59.5936 238.229 59.2217 238.667 58.8135 239.07C56.9164 241.032 55.8575 243.655 55.8612 246.384L53.6027 252.26L57.2135 255.878C57.2135 255.878 59.472 254.951 61.7376 251.34Z" fill="#5B7DE0"/>
<path d="M53.7656 252.473C54.5872 251.188 55.1443 249.753 55.4045 248.25C55.6646 246.747 55.6225 245.208 55.2807 243.722C54.0912 238.766 53.4894 239.58 55.2311 236.706C56.9728 233.831 58.3534 233.229 57.5746 230.773C56.7958 228.316 55.4506 224.471 56.1586 222.135C56.8666 219.799 58.2047 218.836 57.787 216.315C57.3693 213.795 55.663 212.598 56.7179 209.837C57.7728 207.076 59.2384 207.203 58.8419 204.69C58.4454 202.176 57.348 200.13 57.7162 197.851C58.0844 195.571 57.2843 196.166 57.2843 196.166C56.9177 198.097 56.4185 200.002 55.7904 201.865C55.0046 203.84 54.8276 204.98 55.0824 206.417C55.3373 207.855 51.3017 210.375 51.1176 211.508C50.9336 212.641 50.0344 213.908 51.1743 216.308C52.3142 218.708 52.5478 220.146 51.7053 221.767C50.8628 223.388 50.084 223.14 50.615 226.383C51.146 229.626 53.3691 229.626 51.5708 232.139C49.7724 234.652 48.7388 235.198 49.4043 236.932C50.0698 238.667 51.1389 240.713 50.5937 241.888C49.7891 243.23 48.8675 244.497 47.8396 245.676L48.4343 249.273L47.4077 254.229L50.7636 256.629C50.7636 256.629 52.4416 255.652 53.7656 252.473Z" fill="#5B7DE0"/>
<path d="M67.0264 248.791L65.9644 275.299H63.0192V295.739H33.1911V275.299H30.437L29.375 248.791H67.0264Z" fill="#263238" stroke="#263238" stroke-miterlimit="10"/>
<path d="M29.5662 253.641L29.7219 257.478H66.6795L66.8282 253.641H29.5662Z" fill="white" stroke="#263238" stroke-miterlimit="10"/>
<path d="M66.3963 264.459L66.4954 262.017H29.906L30.0051 264.459H66.3963Z" fill="white" stroke="#263238" stroke-miterlimit="10"/>
<path d="M30.437 275.292H29.1201V324.561H33.1911V295.739" stroke="#263238" stroke-miterlimit="10"/>
<path d="M65.9644 275.292H67.0831V324.561H63.0192V295.739" stroke="#263238" stroke-miterlimit="10"/>
<path d="M96.9535 223.728C96.9535 223.728 88.939 178.062 88.939 167.796C88.939 157.53 99.4882 141.246 123.957 134.874C148.425 128.502 179.648 132.75 188.93 137.352C198.212 141.954 203.692 151.866 205.801 168.15C207.911 184.434 212.131 249.924 212.131 249.924L100.755 251.694L96.9535 223.728Z" fill="#666666" stroke="#263238" stroke-linecap="round" stroke-linejoin="round"/>
<path d="M229.555 311.74C227.176 314.33 224.339 316.459 221.186 318.019C216.23 320.37 213.859 322.975 214.106 324.816C214.354 326.657 217.25 326.94 222.213 327.174C227.176 327.408 244.706 326.65 247.588 326.65C250.469 326.65 252.813 325.864 252.813 323.506C252.813 321.149 252.289 315.138 252.289 315.138L229.555 311.74Z" fill="white" stroke="#263238" stroke-linecap="round" stroke-linejoin="round"/>
<path d="M240.012 324.554C230.766 324.554 218.34 324.023 214.22 323.846C214.115 324.161 214.081 324.494 214.12 324.823C214.382 326.657 217.264 326.947 222.227 327.181C227.19 327.415 244.72 326.657 247.602 326.657C250.193 326.657 252.36 326.013 252.756 324.158C249.981 324.349 245.747 324.554 240.012 324.554Z" fill="white" stroke="#263238" stroke-linecap="round" stroke-linejoin="round"/>
<path d="M254.399 196.93C254.399 196.93 244.72 236.684 244.72 239.821C244.72 242.957 253.875 257.344 254.137 268.587C254.399 279.83 250.214 301.806 251 304.157C251.786 306.507 253.124 308.079 252.827 310.175C252.529 312.27 251.786 317.757 251.786 317.757C251.786 317.757 248.119 318.019 240.536 316.448C236.221 315.594 232.01 314.279 227.976 312.525C227.976 312.525 227.452 307.031 227.452 305.991C227.452 304.95 228.5 302.323 228.762 300.234C229.024 298.146 227.976 277.741 225.887 267.022C223.799 256.303 219.869 242.433 219.869 235.113C219.869 227.792 219.607 201.9 219.607 201.9C224.665 198.417 230 195.355 235.559 192.746C244.975 188.3 251.517 190.657 251.517 190.657L254.399 196.93Z" fill="#5B7DE0" stroke="#263238" stroke-linecap="round" stroke-linejoin="round"/>
<path d="M239.049 191.351C237.86 191.751 236.697 192.224 235.566 192.767C230.801 195.024 226.191 197.595 221.767 200.463L223.48 204.152C223.48 204.152 241.994 210.099 251.135 208.952L251.524 208.895C253.138 202.127 254.399 196.951 254.399 196.951L252.614 193.072C251.876 192.606 251.068 192.259 250.221 192.045C249.216 191.903 244.147 191.613 239.049 191.351Z" fill="#263238" stroke="#263238" stroke-linecap="round" stroke-linejoin="round"/>
<path d="M258.321 311.74C255.932 314.332 253.085 316.46 249.924 318.019C244.968 320.37 242.603 322.975 242.844 324.816C243.085 326.657 245.981 326.94 250.951 327.174C255.921 327.408 273.444 326.65 276.318 326.65C279.193 326.65 281.55 325.864 281.55 323.506C281.55 321.149 281.027 315.138 281.027 315.138L258.321 311.74Z" fill="white" stroke="#263238" stroke-linecap="round" stroke-linejoin="round"/>
<path d="M268.778 324.554C259.532 324.554 247.106 324.023 242.986 323.846C242.881 324.161 242.847 324.494 242.886 324.823C243.148 326.657 246.023 326.947 250.993 327.181C255.963 327.415 273.486 326.657 276.361 326.657C278.959 326.657 281.118 326.013 281.522 324.158C278.747 324.349 274.513 324.554 268.778 324.554Z" fill="white" stroke="#263238" stroke-linecap="round" stroke-linejoin="round"/>
<path d="M283.2 196.93C283.2 196.93 273.522 236.684 273.522 239.821C273.522 242.957 282.676 257.344 282.938 268.587C283.2 279.83 279.016 301.806 279.795 304.157C280.573 306.507 281.919 308.079 281.628 310.175C281.338 312.27 280.58 317.757 280.58 317.757C280.58 317.757 276.92 318.019 269.337 316.448C265.025 315.594 260.816 314.279 256.785 312.525C256.785 312.525 256.261 307.031 256.261 305.991C256.261 304.95 257.308 302.323 257.57 300.234C257.832 298.146 256.785 277.741 254.689 267.022C252.593 256.303 248.678 242.433 248.678 235.113C248.678 227.792 248.416 201.9 248.416 201.9C253.472 198.415 258.807 195.353 264.367 192.746C273.784 188.3 280.318 190.657 280.318 190.657L283.2 196.93Z" fill="#5B7DE0" stroke="#263238" stroke-linecap="round" stroke-linejoin="round"/>
<path d="M274.513 190.063C270.976 190.278 267.516 191.19 264.332 192.746C258.772 195.353 253.437 198.415 248.381 201.9C248.381 201.9 248.381 204.888 248.451 209.115C250.115 209.462 254.71 210.141 263.475 209.618C273.146 209.037 279.2 207.154 280.835 206.587L281.345 204.463L281.529 195.436C281.529 195.436 277.182 191.868 274.513 190.063Z" fill="#263238" stroke="#263238" stroke-linecap="round" stroke-linejoin="round"/>
<path d="M226.886 115.029C226.886 115.029 220.514 116.976 218.921 118.038C217.328 119.1 214.85 127.419 214.142 129.366C213.434 131.313 209.717 141.402 209.717 141.402L215.735 142.641C215.735 142.641 215.558 148.659 216.443 151.137C217.328 153.615 223.7 161.049 223.7 161.049L226.001 167.244L223.523 201.582C223.523 201.582 232.55 206.361 247.772 207.777C262.994 209.193 273.437 207.777 274.676 207.069C275.41 206.647 276.18 206.292 276.977 206.007L278.039 201.051L279.632 205.653C281.62 205.467 283.58 205.051 285.473 204.414C287.597 203.529 290.783 201.759 290.783 201.759C290.783 201.759 284.234 176.979 281.402 170.253C278.57 163.527 273.791 153.084 273.791 153.084C273.791 153.084 271.667 128.835 267.419 120.693C263.171 112.551 255.206 110.427 249.542 109.896C243.878 109.365 226.886 115.029 226.886 115.029Z" fill="#5B7DE0" stroke="#263238" stroke-linecap="round" stroke-linejoin="round"/>
<path d="M225.144 115.9C223.954 119.944 223.294 124.125 223.183 128.339L225.144 115.9Z" fill="white"/>
<path d="M225.144 115.9C223.954 119.944 223.294 124.125 223.183 128.339" stroke="#263238" stroke-width="2" stroke-linecap="round" stroke-linejoin="round"/>
<path d="M224.04 155.052C223.963 155.05 223.887 155.038 223.813 155.017C223.434 154.877 223.067 154.707 222.716 154.507C222.397 154.719 222.135 154.875 222.008 154.953C221.848 155.025 221.667 155.035 221.5 154.982C221.333 154.929 221.192 154.815 221.104 154.664C221.016 154.512 220.987 154.333 221.023 154.162C221.059 153.99 221.158 153.838 221.3 153.735L221.498 153.615C220.839 153.051 220.349 152.316 220.082 151.491C219.374 149.232 218.921 130.187 220.16 128.205C220.493 127.668 220.987 127.25 221.572 127.01C222.157 126.771 222.803 126.723 223.417 126.874C224.125 127.065 225.887 127.865 226.05 131.164C226.256 135.235 226.503 149.062 226.263 150.733C226.121 151.703 225.059 152.758 224.018 153.565C224.096 153.602 224.176 153.633 224.259 153.657C224.348 153.687 224.429 153.734 224.5 153.795C224.57 153.856 224.627 153.931 224.669 154.014C224.71 154.098 224.735 154.189 224.741 154.282C224.747 154.375 224.735 154.468 224.705 154.556C224.66 154.699 224.572 154.823 224.453 154.912C224.333 155.001 224.189 155.05 224.04 155.052ZM222.709 128.148C222.439 128.152 222.174 128.223 221.939 128.356C221.705 128.488 221.506 128.677 221.363 128.906C220.471 130.442 220.797 148.885 221.441 151.038C221.676 151.724 222.116 152.323 222.701 152.751C223.834 151.916 224.79 151.009 224.868 150.485C225.08 149.006 224.868 135.554 224.641 131.185C224.556 129.521 223.99 128.431 223.07 128.198C222.952 128.164 222.831 128.147 222.709 128.148Z" fill="white" stroke="#263238" stroke-linecap="round" stroke-linejoin="round"/>
<path d="M221.477 153.594L222.716 154.486C222.208 154.908 221.631 155.239 221.009 155.463C220.351 155.597 219.827 155.052 221.477 153.594Z" fill="#263238" stroke="#263238" stroke-linecap="round" stroke-linejoin="round"/>
<path d="M224.025 153.558L222.716 154.486C222.716 154.486 224.047 156.256 225.498 155.597C226.949 154.939 224.025 153.558 224.025 153.558Z" fill="#263238" stroke="#263238" stroke-linecap="round" stroke-linejoin="round"/>
<path d="M242.844 109.782C242.844 109.782 240.012 123.978 240.012 135.108" stroke="#263238" stroke-width="2" stroke-linecap="round" stroke-linejoin="round"/>
<path d="M243.255 137.727C243.255 140.503 241.64 142.754 239.651 142.754C237.661 142.754 236.047 140.503 236.047 137.727C236.047 134.952 237.661 132.708 239.651 132.708C241.64 132.708 243.255 134.959 243.255 137.727Z" fill="white" stroke="#263238" stroke-linecap="round" stroke-linejoin="round"/>
<path d="M240.635 137.076C240.635 138.839 239.608 140.269 238.341 140.269C237.074 140.269 236.047 138.853 236.047 137.076C236.047 135.299 237.074 133.883 238.341 133.883C239.608 133.883 240.635 135.313 240.635 137.076Z" fill="white" stroke="#263238" stroke-linecap="round" stroke-linejoin="round"/>
<path d="M275.617 128.481L270.251 133.791L267.242 128.304L275.617 128.481Z" fill="#263238" stroke="#263238" stroke-linecap="round" stroke-linejoin="round"/>
<path d="M252.253 132.962L254.377 151.604C254.377 151.604 223.7 157.509 220.393 157.268C216.449 156.844 212.463 157.497 208.86 159.158C204.138 161.282 201.78 162.465 202.014 163.64C202.247 164.815 204.371 168.596 204.371 168.596C204.371 168.596 208.386 168.837 208.619 168.129C208.775 167.59 208.856 167.033 208.86 166.472C208.86 166.472 213.108 166.713 214.991 165.764C216.2 165.14 217.314 164.346 218.298 163.406C218.298 163.406 243.078 165.297 252.515 165.53C261.953 165.764 272.814 165.056 273.996 163.406C275.178 161.757 269.748 128.006 269.748 128.006L252.253 132.962Z" fill="white" stroke="#263238" stroke-linecap="round" stroke-linejoin="round"/>
<path d="M254.377 151.604C254.377 151.604 263.907 148.191 269.245 150.259" stroke="#263238" stroke-linecap="round" stroke-linejoin="round"/>
<path d="M220.393 157.268L220.946 163.548L223.749 163.987L223.155 156.9L220.393 157.268Z" fill="white" stroke="#263238" stroke-linecap="round" stroke-linejoin="round"/>
<path d="M224.188 156.772C224.224 157.424 223.268 158.011 222.064 158.082C220.861 158.153 219.82 157.686 219.777 157.034C219.735 156.383 220.698 155.795 221.901 155.725C223.105 155.654 224.146 156.121 224.188 156.772Z" fill="white" stroke="#263238" stroke-linecap="round" stroke-linejoin="round"/>
<path d="M208.832 166.472L206.325 165.764" stroke="#263238" stroke-linecap="round" stroke-linejoin="round"/>
<path d="M250.363 122.342L251.545 135.794L275.617 128.481C275.617 128.481 267.624 114.554 263.107 111.014C258.59 107.474 249.421 110.54 248.239 111.489" fill="#5B7DE0"/>
<path d="M250.363 122.342L251.545 135.794L275.617 128.481C275.617 128.481 267.624 114.554 263.107 111.014C258.59 107.474 249.421 110.54 248.239 111.489" stroke="#263238" stroke-linecap="round" stroke-linejoin="round"/>
<path d="M204.407 77.6818C204.407 77.6818 195.734 85.8238 199.274 89.7178C202.814 93.6118 207.77 96.0898 208.478 100.515C209.186 104.94 210.602 107.595 208.655 111.489C206.708 115.383 205.292 116.268 205.292 116.268C205.292 116.268 213.611 120.516 218.921 120.162C224.231 119.808 231.842 113.79 231.842 113.79C231.842 113.79 244.232 113.613 249.719 108.834C255.206 104.055 255.029 95.9128 252.728 90.2488C250.427 84.5848 242.462 77.88 238.596 73.632C234.73 69.384 227.091 66.552 219.126 67.437C211.161 68.322 204.407 77.6818 204.407 77.6818Z" fill="#263238" stroke="#263238" stroke-linecap="round" stroke-linejoin="round"/>
<path d="M224.436 115.56C224.436 115.56 226.029 119.631 227.091 123.348C228.153 127.065 230.985 136.446 230.985 135.915C230.985 135.384 236.649 121.224 238.065 117.153C238.91 114.753 239.445 112.254 239.658 109.719L234.879 98.5677C233.38 101.921 231.212 104.933 228.507 107.418C224.259 111.135 223.197 112.905 223.197 112.905L224.436 115.56Z" fill="white" stroke="#263238" stroke-linecap="round" stroke-linejoin="round"/>
<path d="M225.229 117.16C225.229 117.16 232.543 115.1 235.743 112.36C238.943 109.62 239.17 108.926 239.17 108.926L235.283 101.612L225.229 117.16Z" fill="#263238" stroke="#263238" stroke-linecap="round" stroke-linejoin="round"/>
<path d="M205.469 91.8417C205.469 91.8417 208.655 99.8067 209.186 102.108C209.717 104.409 211.664 108.834 214.673 111.489C217.682 114.144 219.629 117.684 224.408 116.976C229.187 116.268 235.028 107.772 236.09 105.117C237.152 102.462 234.674 95.2047 234.674 94.3197C234.659 94.0504 234.569 93.7907 234.412 93.5712C234.255 93.3517 234.039 93.1815 233.789 93.0807C233.789 93.0807 225.293 96.4437 219.452 93.9657C215.55 92.2202 211.866 90.0221 208.478 87.4167L205.469 91.8417Z" fill="white" stroke="#263238" stroke-linecap="round" stroke-linejoin="round"/>
<path d="M229.718 96.0898C229.718 96.0898 232.019 90.0718 235.382 90.7798C238.745 91.4878 238.391 97.3288 236.621 99.4528C234.851 101.577 233.435 100.515 233.435 100.515" fill="white"/>
<path d="M229.718 96.0898C229.718 96.0898 232.019 90.0718 235.382 90.7798C238.745 91.4878 238.391 97.3288 236.621 99.4528C234.851 101.577 233.435 100.515 233.435 100.515" stroke="#263238" stroke-linecap="round" stroke-linejoin="round"/>
<path d="M215.232 97.704C215.458 98.8109 215.577 99.9372 215.586 101.067C215.586 102.837 214.701 105.669 216.294 106.377C217.887 107.085 220.188 106.377 220.719 105.492" stroke="#263238" stroke-linecap="round" stroke-linejoin="round"/>
<path d="M218.213 109.032C218.213 109.032 222.992 110.094 225.647 104.607" stroke="#263238" stroke-linecap="round" stroke-linejoin="round"/>
<path d="M220.337 98.9218C221.221 99.2564 222.193 99.281 223.093 98.9917C223.993 98.7023 224.769 98.116 225.293 97.3288" stroke="#263238" stroke-linecap="round" stroke-linejoin="round"/>
<path d="M210.779 100.161C210.779 100.161 213.08 101.223 214.496 99.6298" stroke="#263238" stroke-linecap="round" stroke-linejoin="round"/>
<path d="M214.319 96.7978C214.319 96.7978 212.018 95.2048 210.071 97.1518" stroke="#263238" stroke-linecap="round" stroke-linejoin="round"/>
<path d="M217.505 95.0278C217.505 95.0278 218.567 93.2578 221.93 93.6118" stroke="#263238" stroke-linecap="round" stroke-linejoin="round"/>
<path d="M183.896 141.303C183.896 141.303 190.268 142.719 192.392 150.981C194.516 159.243 204.881 192.576 204.881 192.576C204.881 192.576 215.848 198.842 219.154 199.316C222.461 199.791 225.286 200.024 225.526 203.564C225.767 207.104 224.818 212.768 222.928 213.71C221.038 214.651 213.958 214.659 208.768 214.418C203.578 214.177 200.272 213.002 197.44 211.119C194.608 209.235 191.542 190.587 188.236 181.616C184.93 172.646 178.232 154.068 178.94 149.353C179.648 144.637 181.538 141.303 183.896 141.303Z" fill="#5B7DE0" stroke="#263238" stroke-linecap="round" stroke-linejoin="round"/>
<path d="M208.86 218.772L204.308 218.432C202.478 218.293 200.639 218.537 198.908 219.148C197.178 219.759 195.593 220.723 194.256 221.98C192.919 223.237 191.858 224.758 191.141 226.448C190.424 228.137 190.066 229.957 190.091 231.792L190.941 323.74C190.946 324.442 191.229 325.114 191.728 325.609C192.226 326.103 192.9 326.381 193.603 326.381H235.247L245.938 218.418L208.86 218.772Z" fill="#333333" stroke="#263238" stroke-linecap="round" stroke-linejoin="round"/>
<path d="M235.233 326.388C234.531 326.388 233.857 326.111 233.358 325.616C232.859 325.121 232.577 324.45 232.571 323.747L231.721 231.799C231.696 229.964 232.054 228.144 232.771 226.455C233.488 224.766 234.549 223.244 235.886 221.987C237.224 220.731 238.808 219.766 240.539 219.155C242.269 218.544 244.108 218.301 245.938 218.439L250.49 218.779C252.286 218.915 254.034 219.415 255.629 220.25C257.224 221.085 258.632 222.236 259.767 223.634C260.902 225.032 261.739 226.647 262.228 228.379C262.717 230.112 262.848 231.926 262.611 233.711L250.632 324.052C250.549 324.692 250.236 325.28 249.752 325.706C249.267 326.132 248.644 326.367 247.998 326.367L235.233 326.388Z" fill="#666666" stroke="#263238" stroke-linecap="round" stroke-linejoin="round"/>
<path d="M138.853 239.304H218.857C221.11 239.304 223.271 240.199 224.864 241.792C226.458 243.386 227.353 245.547 227.353 247.8V326.388H138.853V239.304Z" fill="#666666" stroke="#263238" stroke-linecap="round" stroke-linejoin="round"/>
<path d="M227.707 269.373H144.163" stroke="#263238" stroke-linecap="round" stroke-linejoin="round"/>
<path d="M193.489 205.412L197.263 209.426C205.377 209.813 213.367 211.568 220.896 214.616C232.691 219.572 247.8 225.477 248.742 232.316C249.683 239.155 237.18 277.628 235.056 287.073C232.932 296.517 232.691 299.817 232.691 299.817C232.691 299.817 234.815 301.7 234.348 303.357C233.881 305.013 231.275 313.028 231.275 313.028C227.551 313.889 223.762 314.443 219.947 314.685C216.071 314.753 212.198 314.435 208.386 313.736C208.386 313.736 207.678 305.714 208.386 303.824C209.094 301.934 211.692 299.817 211.926 298.401C212.159 296.985 213.108 274.562 213.108 265.833C213.108 257.103 218.064 243.177 218.064 243.177C218.064 243.177 194.7 242.228 187.854 241.52C181.007 240.812 164.49 225.002 164.015 217.214C163.541 209.426 182.161 200.93 193.489 205.412Z" fill="#263238" stroke="#263238" stroke-linecap="round" stroke-linejoin="round"/>
<path d="M231.516 310.196C231.516 310.196 229.392 306.189 226.794 308.072C224.195 309.955 223.728 312.561 222.312 312.561C220.896 312.561 208.386 310.196 208.386 310.196C208.386 310.196 205.079 323.181 206.262 324.597C207.444 326.013 218.298 327.188 223.02 327.896C227.742 328.604 238.122 331.202 244.968 331.202C251.814 331.202 250.632 326.246 248.975 324.597C247.319 322.947 235.523 316.568 233.874 314.444C232.876 313.156 232.081 311.724 231.516 310.196Z" fill="white" stroke="#263238" stroke-linecap="round" stroke-linejoin="round"/>
<path d="M250.193 328.179C247.379 328.774 244.51 329.076 241.633 329.078C235.495 329.078 230.539 326.721 222.751 325.305C216.627 324.186 209.037 322.345 206.085 321.609C205.922 323.089 205.929 324.229 206.233 324.597C207.416 326.013 218.269 327.188 222.992 327.896C227.714 328.604 238.093 331.202 244.94 331.202C248.621 331.202 249.981 329.765 250.193 328.179Z" fill="white" stroke="#263238" stroke-linecap="round" stroke-linejoin="round"/>
<path d="M144.871 139.334C144.871 139.334 130.711 144.765 125.521 148.305C120.332 151.845 123.631 165.297 123.631 172.844C123.631 180.391 122.215 200.697 121.981 204.704C121.748 208.711 126.937 214.149 130.477 216.273C134.017 218.397 164.228 219.572 172.249 219.572C180.271 219.572 197.504 214.382 196.088 199.04C194.672 183.698 189.716 171.902 189.008 169.304C188.3 166.706 188.059 158.217 188.3 155.852C188.54 153.487 190.424 146.414 186.884 143.108C183.344 139.802 168.476 136.028 161.629 136.269C154.783 136.509 144.871 139.334 144.871 139.334Z" fill="#5B7DE0" stroke="#263238" stroke-linecap="round" stroke-linejoin="round"/>
<path d="M146.726 154.889C147.07 155.856 147.57 156.76 148.206 157.565C150.194 160.044 152.322 162.408 154.578 164.645C159.725 169.8 167.824 173.233 167.824 173.233C167.824 173.233 170.522 159.01 171.01 152.631C171.499 146.252 168.065 141.104 162.422 139.179C156.78 137.253 146.485 139.419 145.013 143.349C143.936 146.273 145.763 152.178 146.726 154.889Z" fill="white" stroke="#263238" stroke-linecap="round" stroke-linejoin="round"/>
<path d="M147.498 134.966C147.005 134.989 146.523 135.114 146.082 135.334C145.021 135.871 144.201 136.789 143.788 137.904C142.556 140.85 141.579 144.043 141.579 144.043C142.286 147.709 143.27 151.316 144.524 154.833C145.757 158.173 146.674 161.622 147.264 165.134C147.264 165.134 156.093 158.507 157.806 157.041C159.422 155.82 161.147 154.751 162.96 153.848C162.96 153.848 168.844 156.794 171.541 158.507C174.239 160.22 176.448 161.7 176.448 161.7C176.14 156.844 175.149 152.055 173.502 147.476C170.805 140.113 169.58 137.904 168.107 136.439C166.635 134.973 155.349 130.796 147.498 134.966Z" fill="white" stroke="#263238" stroke-linecap="round" stroke-linejoin="round"/>
<path d="M167.796 99.828C167.796 99.828 169.538 97.5978 170.543 99.3607C171.1 100.359 171.775 101.286 172.554 102.122C172.554 102.122 174.557 103.127 174.812 104.883C174.985 105.962 175.068 107.054 175.06 108.147C175.06 108.897 177.319 109.4 177.319 110.66C177.319 111.921 176.065 112.416 175.818 113.669C175.57 114.923 176.646 116.034 175.563 117.684C174.48 119.333 175.662 118.732 174.48 119.34C173.297 119.949 172.051 120.7 172.051 120.7L166.274 101.584L167.796 99.828Z" fill="#C7C7C7" stroke="#7D7D7D" stroke-linecap="round" stroke-linejoin="round"/>
<path d="M148.822 91.1762C148.822 91.1762 142.138 93.1303 139.349 98.7023C136.559 104.274 136.283 108.459 137.678 113.195C139.072 117.932 144.361 131.306 146.039 135.207C147.717 139.108 148.269 146.358 151.611 150.783C154.953 155.208 163.038 159.144 163.038 159.144C163.038 159.144 169.162 150.783 170.281 146.606C171.4 142.428 169.162 134.067 169.162 134.067C169.162 134.067 175.294 126.541 174.458 119.298C173.623 112.055 169.162 102.603 167.796 99.828C166.43 97.0526 161.36 88.3938 148.822 91.1762Z" fill="white" stroke="#263238" stroke-linecap="round" stroke-linejoin="round"/>
<path d="M153.636 102.341C153.636 102.341 158.542 99.8917 161.728 100.628" stroke="#263238" stroke-linecap="round" stroke-linejoin="round"/>
<path d="M151.668 101.364C151.668 101.364 156.086 99.1554 159.272 99.1554" stroke="#263238" stroke-linecap="round" stroke-linejoin="round"/>
<path d="M169.162 134.095C169.162 134.095 165.403 136.439 161.969 136.439C158.535 136.439 152.156 133.741 150.195 131.773C150.195 131.773 156.008 138.428 162.182 140.092C168.355 141.756 170.019 139.143 170.019 139.143L169.162 134.095Z" fill="#263238" stroke="#263238" stroke-linecap="round" stroke-linejoin="round"/>
<path d="M139.136 119.652C139.325 119.54 139.507 119.417 139.681 119.284C140.538 118.654 142.081 117.28 141.897 115.638C141.65 113.379 141.897 112.098 140.644 110.363C139.391 108.628 137.38 104.841 137.38 104.841C135.894 104.72 134.407 105.072 133.132 105.846C131.376 107.099 131.872 108.105 131.376 109.86C130.881 111.616 129.613 110.363 128.863 112.876C128.113 115.39 129.111 116.891 130.116 117.393C131.122 117.896 130.371 119.404 130.371 121.641C130.409 122.452 130.732 123.224 131.282 123.821C131.832 124.417 132.575 124.801 133.38 124.905C134.138 124.905 134.385 125.911 135.391 126.916C136.396 127.921 139.639 126.796 139.639 126.796C139.639 126.796 141.161 125.911 141.409 124.905C141.657 123.9 139.136 119.652 139.136 119.652Z" fill="#C7C7C7" stroke="#7D7D7D" stroke-linecap="round" stroke-linejoin="round"/>
<path d="M141.303 119.326C141.303 119.326 137.954 114.866 135.724 117.372C133.493 119.879 137.394 126.01 139.625 126.845C141.855 127.681 144.644 125.429 144.644 125.429" fill="white"/>
<path d="M141.303 119.326C141.303 119.326 137.954 114.866 135.724 117.372C133.493 119.879 137.394 126.01 139.625 126.845C141.855 127.681 144.644 125.429 144.644 125.429" stroke="#263238" stroke-linecap="round" stroke-linejoin="round"/>
<path d="M161.644 105.945C161.644 105.945 161.36 108.459 161.92 109.294C162.479 110.129 165.821 111.524 165.261 114.03C164.702 116.537 161.36 118.767 159.689 116.537" stroke="#263238" stroke-linecap="round" stroke-linejoin="round"/>
<path d="M157.459 120.997C159.082 121.436 160.8 121.379 162.39 120.833C163.98 120.286 165.37 119.276 166.38 117.932" stroke="#263238" stroke-linecap="round" stroke-linejoin="round"/>
<path d="M149.105 109.471C149.026 109.47 148.947 109.458 148.871 109.436C148.777 109.409 148.689 109.362 148.613 109.3C148.537 109.237 148.476 109.159 148.432 109.071C148.388 108.983 148.363 108.887 148.358 108.789C148.353 108.691 148.369 108.593 148.404 108.501C149.65 104.763 154.386 104.126 154.585 104.104C154.778 104.08 154.973 104.133 155.127 104.253C155.281 104.372 155.382 104.548 155.406 104.742C155.43 104.935 155.377 105.13 155.258 105.284C155.138 105.438 154.962 105.538 154.769 105.563C154.726 105.563 150.754 106.108 149.813 108.968C149.767 109.119 149.673 109.25 149.545 109.341C149.417 109.432 149.262 109.478 149.105 109.471Z" fill="#C7C7C7" stroke="#7D7D7D" stroke-linecap="round" stroke-linejoin="round"/>
<path d="M167.215 104.834C167.119 104.835 167.024 104.817 166.935 104.781C166.846 104.744 166.766 104.69 166.699 104.621C166.157 104.094 165.469 103.744 164.724 103.618C163.979 103.491 163.213 103.594 162.529 103.913C162.354 104 162.152 104.015 161.966 103.953C161.781 103.891 161.628 103.759 161.541 103.584C161.454 103.409 161.439 103.207 161.501 103.022C161.563 102.837 161.695 102.684 161.87 102.596C162.829 102.136 163.907 101.983 164.956 102.158C166.005 102.333 166.974 102.827 167.732 103.573C167.804 103.64 167.862 103.72 167.901 103.81C167.94 103.899 167.96 103.996 167.96 104.094C167.96 104.191 167.94 104.288 167.901 104.378C167.862 104.467 167.804 104.548 167.732 104.614C167.666 104.684 167.585 104.739 167.497 104.777C167.408 104.815 167.312 104.834 167.215 104.834Z" fill="#C7C7C7" stroke="#7D7D7D" stroke-linecap="round" stroke-linejoin="round"/>
<path d="M156.907 112.636C156.742 113.664 156.357 114.644 155.78 115.511C155.202 116.377 154.444 117.108 153.558 117.655" stroke="#263238" stroke-linecap="round" stroke-linejoin="round"/>
<path d="M165.545 111.241C167.033 112.287 168.753 112.958 170.557 113.195" stroke="#263238" stroke-linecap="round" stroke-linejoin="round"/>
<path d="M155.052 111.729C155.3 112.614 155.094 113.443 154.592 113.584C154.089 113.726 153.494 113.117 153.247 112.232C152.999 111.347 153.204 110.512 153.707 110.377C154.209 110.243 154.811 110.844 155.052 111.729Z" fill="#263238"/>
<path d="M166.16 108.579C166.401 109.464 166.196 110.292 165.7 110.434C165.205 110.575 164.596 109.967 164.355 109.074C164.114 108.182 164.313 107.361 164.808 107.22C165.304 107.078 165.913 107.687 166.16 108.579Z" fill="#263238"/>
<path d="M155.172 109.634L151.604 112.013" stroke="#263238" stroke-linecap="round" stroke-linejoin="round"/>
<path d="M163.661 107.602L167.569 107.432" stroke="#263238" stroke-linecap="round" stroke-linejoin="round"/>
<path d="M239.049 207.741C239.049 207.741 244.288 210.092 245.251 210.772C246.214 211.451 248.862 215.586 249.082 216.875C249.301 218.163 249.039 218.694 248.232 218.227C247.425 217.76 245.138 215.02 243.368 213.15C241.598 211.281 239.339 210.106 238.787 208.995C238.235 207.883 238.171 207.529 239.049 207.741Z" fill="white" stroke="#263238" stroke-linecap="round" stroke-linejoin="round"/>
<path d="M223.353 202.134C223.353 202.134 231.983 204.966 235.014 205.865C237.281 206.568 239.367 207.759 241.124 209.356C241.987 210.17 246.752 215.572 247.269 217.144C247.786 218.715 248.501 222.921 247.616 223.31C246.731 223.7 245.825 222.666 245.428 221.774C244.975 220.936 244.439 220.147 243.828 219.416C243.828 219.416 244.897 222.822 244.713 224.535C244.529 226.248 244.005 227.289 242.589 227.53C241.173 227.771 239.587 225.406 238.49 223.211C237.822 221.882 236.964 220.659 235.941 219.579L232.557 218.007C233.138 219.711 233.903 221.346 234.837 222.885C236.132 224.818 237.669 225.271 237.109 226.326C236.55 227.381 233.973 227.587 232.762 226.121C231.551 224.655 229.604 223.07 228.514 221.101C227.424 219.133 224.896 213.816 224.896 213.816L217.986 212.612C217.986 212.612 213.943 211.395 213.682 207.132C213.42 202.87 221.484 201.022 223.353 202.134Z" fill="white" stroke="#263238" stroke-linecap="round" stroke-linejoin="round"/>
<path d="M237.477 215.975C237.477 215.975 240.571 219.99 241.591 221.731C242.61 223.473 242.596 227.544 242.596 227.544" stroke="#263238" stroke-linecap="round" stroke-linejoin="round"/>
<path d="M243.828 219.43L241.074 213.2" stroke="#263238" stroke-linecap="round" stroke-linejoin="round"/>
<path d="M153.636 216.74C153.636 216.74 169.446 214.857 177.467 217.689C185.489 220.521 193.284 230.433 193.284 238.688C193.284 246.943 191.627 292.262 192.102 293.445C192.576 294.627 195.167 294.861 195.167 297.218C195.167 299.576 193.284 311.853 193.284 311.853C193.284 311.853 182.19 315.86 178.416 315.86H174.635C174.635 315.86 169.212 301.466 169.446 299.109C169.679 296.751 171.095 294.861 171.095 293.678C171.095 292.496 164.256 267.716 164.256 260.402V244.118L151.038 241.286C151.038 241.286 145.14 224.528 153.636 216.74Z" fill="#263238" stroke="#263238" stroke-linecap="round" stroke-linejoin="round"/>
<path d="M202.927 322.473C202.927 322.473 195.847 314.21 193.015 309.729C190.183 305.247 184.993 302.649 181.928 305.006C178.862 307.364 178.855 313.269 178.855 313.269L173.665 312.32C173.665 312.32 175.556 318.692 176.497 322.232C177.439 325.772 178.855 328.137 184.993 329.078C191.132 330.02 201.277 330.728 204.109 327.896C206.941 325.064 202.927 322.473 202.927 322.473Z" fill="white" stroke="#263238" stroke-linecap="round" stroke-linejoin="round"/>
<path d="M204.109 327.896C204.564 327.526 204.887 327.018 205.029 326.448C205.17 325.879 205.123 325.279 204.895 324.738C203.576 325.487 202.209 326.149 200.803 326.721C195.613 328.845 188.533 328.37 182.636 326.48C180.455 325.855 178.451 324.73 176.781 323.195C177.75 326.204 179.436 328.222 184.993 329.078C191.16 330.02 201.277 330.728 204.109 327.896Z" fill="white" stroke="#263238" stroke-linecap="round" stroke-linejoin="round"/>
<path d="M212.202 203.508C212.202 203.508 211.735 209.108 211.579 210.814C211.423 212.52 212.358 214.552 212.995 214.857C213.632 215.161 213.929 214.552 213.929 213.15V210.814C213.908 210.347 212.202 203.508 212.202 203.508Z" fill="white" stroke="#263238" stroke-linecap="round" stroke-linejoin="round"/>
<path d="M221.505 192.017C221.505 189.581 224.748 184.448 224.748 184.448L226.001 167.244L225.151 163.909L221.37 163.64C219.877 168.653 214.63 186.296 213.936 189.043C213.13 192.776 212.588 196.562 212.315 200.371C212.315 201.716 212.315 207.933 212.86 210.368C213.405 212.804 217.179 215.225 217.179 215.225C217.179 215.225 222.277 215.225 223.084 214.687C223.891 214.149 221.845 212.35 221.845 212.35C221.54 212.35 220.641 205.681 222.553 203.614C224.096 201.964 228.5 203.883 228.5 203.883C228.5 203.883 227.417 200.909 226.064 198.219C224.712 195.528 221.505 194.445 221.505 192.017Z" fill="white" stroke="#263238" stroke-linecap="round" stroke-linejoin="round"/>
<path d="M222.312 215.168C222.312 215.168 218.269 212.995 217.802 212.06C217.335 211.126 217.186 203.975 217.186 203.975" stroke="#263238" stroke-linecap="round" stroke-linejoin="round"/>
<path d="M218.107 215.168C218.107 215.168 214.843 211.749 214.843 210.503C214.843 209.256 214.064 203.975 214.064 203.975" stroke="#263238" stroke-linecap="round" stroke-linejoin="round"/>
<path d="M140.779 218.772L113.797 218.453C113.102 218.397 112.403 218.397 111.708 218.453L107.149 218.793C105.354 218.929 103.605 219.429 102.011 220.264C100.416 221.099 99.0083 222.251 97.8742 223.649C96.7401 225.047 95.9033 226.661 95.4151 228.394C94.9268 230.127 94.7974 231.941 95.0348 233.725L107.071 324.087C107.155 324.728 107.469 325.316 107.955 325.742C108.441 326.168 109.065 326.402 109.712 326.402H143.342L140.779 218.772Z" fill="#333333" stroke="#263238" stroke-linecap="round" stroke-linejoin="round"/>
<path d="M156.043 326.388C156.745 326.386 157.418 326.108 157.916 325.614C158.414 325.12 158.698 324.449 158.705 323.747L159.555 231.799C159.579 229.964 159.22 228.145 158.503 226.456C157.786 224.767 156.725 223.246 155.387 221.99C154.05 220.733 152.466 219.769 150.736 219.157C149.006 218.546 147.168 218.302 145.338 218.439L140.779 218.779C138.984 218.915 137.235 219.415 135.641 220.25C134.046 221.085 132.638 222.237 131.504 223.635C130.37 225.033 129.533 226.647 129.045 228.38C128.557 230.112 128.427 231.926 128.665 233.711L140.701 324.073C140.785 324.714 141.099 325.302 141.585 325.728C142.071 326.154 142.695 326.388 143.342 326.388H156.043Z" fill="#666666" stroke="#263238" stroke-linecap="round" stroke-linejoin="round"/>
<path d="M132.127 145.706C132.127 145.706 122.215 145.94 118.441 151.604C114.668 157.268 111.595 176.625 110.887 181.581C110.179 186.537 107.113 203.996 108.296 207.302C109.478 210.609 112.544 211.076 118.208 211.317C123.872 211.557 126.463 208.485 127.645 204.945C128.828 201.405 131.893 168.362 131.893 168.362" fill="#5B7DE0"/>
<path d="M132.127 145.706C132.127 145.706 122.215 145.94 118.441 151.604C114.668 157.268 111.595 176.625 110.887 181.581C110.179 186.537 107.113 203.996 108.296 207.302C109.478 210.609 112.544 211.076 118.208 211.317C123.872 211.557 126.463 208.485 127.645 204.945C128.828 201.405 131.893 168.362 131.893 168.362" stroke="#263238" stroke-linecap="round" stroke-linejoin="round"/>
<path d="M118.675 195.5C120.091 195.974 132.835 199.04 133.784 201.638C134.084 202.301 134.177 203.039 134.05 203.755C133.924 204.471 133.584 205.133 133.076 205.653C133.076 205.653 128.828 215.798 125.047 216.74C121.266 217.682 112.777 215.09 108.529 213.2C104.281 211.31 108.529 196.916 109.004 196.208" fill="#5B7DE0"/>
<path d="M118.675 195.5C120.091 195.974 132.835 199.04 133.784 201.638C134.084 202.301 134.177 203.039 134.05 203.755C133.924 204.471 133.584 205.133 133.076 205.653C133.076 205.653 128.828 215.798 125.047 216.74C121.266 217.682 112.777 215.09 108.529 213.2C104.281 211.31 108.529 196.916 109.004 196.208" stroke="#263238" stroke-linecap="round" stroke-linejoin="round"/>
<path d="M135.936 208.485C135.936 208.485 136.878 207.069 135.695 206.361C134.513 205.653 132.63 203.529 130.506 203.529C128.382 203.529 124.608 205.412 123.659 209.426C122.711 213.441 123.426 216.273 125.075 216.74C126.725 217.207 130.272 218.156 131.922 218.156C133.571 218.156 134.754 214.616 134.987 213.908C135.221 213.2 135.936 208.485 135.936 208.485Z" fill="#5B7DE0" stroke="#263238" stroke-linecap="round" stroke-linejoin="round"/>
<path d="M151.243 209.901C151.243 209.901 155.257 214.857 157.148 215.798C159.038 216.74 160.688 217.922 159.272 219.338C157.856 220.754 154.549 220.046 153.133 218.156C151.717 216.266 151.243 209.901 151.243 209.901Z" fill="white" stroke="#263238" stroke-linecap="round" stroke-linejoin="round"/>
<path d="M137.557 208.485C137.557 208.485 148.652 206.828 150.301 206.828C151.951 206.828 154.549 218.63 154.783 220.521C155.017 222.411 155.965 223.586 154.783 224.528C154.269 225.032 153.611 225.363 152.9 225.477C152.25 226.031 151.537 226.506 150.776 226.893C150.068 227.126 147.469 226.652 147.469 226.652C147.469 226.652 147.236 227.601 145.345 227.36C143.455 227.119 137.083 219.105 137.083 219.105C137.083 219.105 132.368 217.922 130.477 216.273C128.587 214.623 129.295 211.784 130.477 209.901C131.66 208.018 134.251 207.536 134.251 207.536L137.557 208.485Z" fill="white" stroke="#263238" stroke-linecap="round" stroke-linejoin="round"/>
<path d="M147.944 212.258L153.841 225.002" stroke="#263238" stroke-linecap="round" stroke-linejoin="round"/>
<path d="M143.455 214.382L150.776 226.893" stroke="#263238" stroke-linecap="round" stroke-linejoin="round"/>
<path d="M147.469 226.652L140.623 216.74" stroke="#263238" stroke-linecap="round" stroke-linejoin="round"/>
</svg>
