<svg width="390" height="397" viewBox="0 0 390 397" fill="none" xmlns="http://www.w3.org/2000/svg">
<path d="M-127 300.023L82.5709 37.5801C115.045 -3.08687 177.09 -2.41139 208.671 38.953L323.291 189.08C328.085 195.36 333.484 201.155 339.408 206.383L484.104 334.055C492.418 341.392 505.418 338.932 510.478 329.065L626.708 102.417C632.757 90.6207 649.381 89.9803 656.32 101.276L723.208 210.163C725.332 213.622 728.624 216.206 732.487 217.449L935.114 282.629C938.916 283.852 943.028 283.697 946.727 282.192L1168.17 192.077C1177.46 188.295 1187.99 193.341 1190.86 202.952L1248 394.023" stroke="#2D59F0" stroke-opacity="0.1" stroke-width="15"/>
</svg>
