<svg width="390" height="469" viewBox="0 0 390 469" fill="none" xmlns="http://www.w3.org/2000/svg">
<path d="M-987 339.38L-727.085 13.892C-720.184 5.25029 -707 5.39384 -700.289 14.1838L-530.513 236.553C-529.839 237.435 -529.081 238.25 -528.248 238.984L-375.896 373.412C-367.582 380.749 -354.582 378.29 -349.522 368.423L-233.292 141.774C-227.243 129.978 -210.619 129.338 -203.68 140.634L-136.792 249.521C-134.668 252.979 -131.376 255.563 -127.513 256.806L50.183 313.967C70.0897 320.37 91.6155 319.56 110.984 311.678L248.129 255.866C289.976 238.836 337.492 260.81 351.619 303.723L405 465.88" stroke="#2D59F0" stroke-opacity="0.1" stroke-width="15"/>
</svg>
