<svg width="375" height="390" viewBox="0 0 375 390" fill="none" xmlns="http://www.w3.org/2000/svg">
<path d="M184.274 345.431C267.415 345.431 334.814 333.46 334.814 318.692C334.814 303.925 267.415 291.954 184.274 291.954C101.133 291.954 33.7344 303.925 33.7344 318.692C33.7344 333.46 101.133 345.431 184.274 345.431Z" fill="#5B7DE0"/>
<path opacity="0.5" d="M184.274 345.431C267.415 345.431 334.814 333.46 334.814 318.692C334.814 303.925 267.415 291.954 184.274 291.954C101.133 291.954 33.7344 303.925 33.7344 318.692C33.7344 333.46 101.133 345.431 184.274 345.431Z" fill="white"/>
<path d="M331.897 180.437C331.897 180.437 331.897 177.161 327.311 172.567C322.724 167.973 319.768 165.36 319.768 165.36C319.768 165.36 317.475 172.895 321.734 177.489C324.863 180.714 328.254 183.672 331.874 186.334L331.897 180.437Z" fill="#5B7DE0"/>
<path d="M325.236 200.905C325.236 200.905 325.236 197.629 320.65 193.042C316.063 188.456 313.115 185.827 313.115 185.827C313.115 185.827 310.775 193.37 315.08 197.956C318.208 201.182 321.6 204.141 325.22 206.801L325.236 200.905Z" fill="#5B7DE0"/>
<path d="M331.609 186.022C331.609 186.022 331.952 182.762 337.006 178.682C342.061 174.603 345.259 172.31 345.259 172.31C345.259 172.31 346.748 180.047 342.022 184.158C338.564 187.034 334.872 189.617 330.985 191.88L331.609 186.022Z" fill="#5B7DE0"/>
<path d="M323.567 210.194C323.567 210.194 324.253 206.989 329.698 203.463C335.142 199.937 338.582 198.003 338.582 198.003C338.582 198.003 339.245 205.858 334.12 209.453C330.376 211.95 326.432 214.131 322.327 215.974L323.567 210.194Z" fill="#5B7DE0"/>
<path d="M325.08 236.551C325.08 236.551 325.08 233.267 329.666 228.68C334.253 224.094 337.201 221.473 337.201 221.473C337.201 221.473 339.494 229.008 335.236 233.594C332.11 236.824 328.718 239.786 325.096 242.447L325.08 236.551Z" fill="#5B7DE0"/>
<path d="M325.002 242.978C325.002 242.978 325.462 239.733 321.578 234.538C317.693 229.343 315.143 226.333 315.143 226.333C315.143 226.333 311.797 233.47 315.361 238.618C318.004 242.258 320.947 245.671 324.16 248.82L325.002 242.978Z" fill="#5B7DE0"/>
<path d="M320.478 262.08C320.478 262.08 320.478 258.804 325.064 254.218C329.651 249.631 332.599 247.01 332.599 247.01C332.599 247.01 334.9 254.545 330.634 259.132C327.508 262.361 324.116 265.323 320.494 267.985L320.478 262.08Z" fill="#5B7DE0"/>
<path d="M323.52 279.334C323.52 279.334 322.686 276.159 325.962 270.559C329.238 264.958 331.422 261.674 331.422 261.674C331.422 261.674 335.548 268.382 332.592 273.905C330.375 277.819 327.836 281.542 325.002 285.035L323.52 279.334Z" fill="#5B7DE0"/>
<path d="M332.311 179.595C332.081 183.009 331.662 186.407 331.055 189.774C329.245 199.134 324.706 205.187 322.896 213.658C321.086 222.128 326.289 233.025 324.893 243.898C323.497 254.771 319.269 260.816 320.478 268.078C321.687 275.34 328.177 295.69 328.177 295.69" stroke="#263238" stroke-width="0.75" stroke-linecap="round" stroke-linejoin="round"/>
<path d="M331.562 188.198L336.507 184.4" stroke="#263238" stroke-width="0.75" stroke-linecap="round" stroke-linejoin="round"/>
<path d="M331.796 183.83L329.721 180.149" stroke="#263238" stroke-width="0.75" stroke-linecap="round" stroke-linejoin="round"/>
<path d="M323.169 213.268C323.169 213.268 327.311 210.148 331.562 207.028" stroke="#263238" stroke-width="0.75" stroke-linecap="round" stroke-linejoin="round"/>
<path d="M325.018 206.224C323 202.438 320.61 198.864 317.881 195.554" stroke="#263238" stroke-width="0.75" stroke-linecap="round" stroke-linejoin="round"/>
<path d="M325.236 241.207C327.6 236.852 330.585 232.863 334.097 229.367" stroke="#263238" stroke-width="0.75" stroke-linecap="round" stroke-linejoin="round"/>
<path d="M324.433 245.809C323.178 242.852 321.678 240.006 319.948 237.299C317.538 233.735 317.187 233.275 317.187 233.275" stroke="#263238" stroke-width="0.75" stroke-linecap="round" stroke-linejoin="round"/>
<path d="M320.478 268.07C321.525 265.464 322.771 262.942 324.206 260.528C325.64 258.29 327.254 256.175 329.035 254.202" stroke="#263238" stroke-width="0.75" stroke-linecap="round" stroke-linejoin="round"/>
<path d="M325.033 285.035C324.794 282.55 325.222 280.046 326.273 277.781C327.997 274.443 329.955 270.075 330.758 268.351" stroke="#263238" stroke-width="0.75" stroke-linecap="round" stroke-linejoin="round"/>
<path d="M301.852 224.219C301.852 224.219 301.493 222.167 303.872 218.759C306.251 215.35 307.819 213.416 307.819 213.416C307.819 213.416 310.073 217.901 307.905 221.216C306.288 223.58 304.477 225.805 302.491 227.869L301.852 224.219Z" fill="#5B7DE0"/>
<path d="M308.248 236.34C308.248 236.34 307.897 234.289 310.276 230.88C312.655 227.471 314.215 225.537 314.215 225.537C314.215 225.537 316.477 230.014 314.301 233.337C312.685 235.699 310.874 237.922 308.887 239.983L308.248 236.34Z" fill="#5B7DE0"/>
<path d="M302.639 227.69C302.639 227.69 302.07 225.685 298.459 223.673C294.847 221.66 292.585 220.553 292.585 220.553C292.585 220.553 292.499 225.568 295.908 227.627C298.388 229.059 300.984 230.281 303.669 231.278L302.639 227.69Z" fill="#5B7DE0"/>
<path d="M310.307 241.972C310.307 241.972 309.527 240.037 305.728 238.423C301.93 236.808 299.566 235.958 299.566 235.958C299.566 235.958 300.003 240.95 303.607 242.65C306.225 243.81 308.936 244.749 311.711 245.458L310.307 241.972Z" fill="#5B7DE0"/>
<path d="M312.218 258.664C312.218 258.664 311.867 256.612 308.489 254.233C305.112 251.854 302.975 250.528 302.975 250.528C302.975 250.528 302.359 255.505 305.525 257.923C307.843 259.604 310.295 261.091 312.857 262.369L312.218 258.664Z" fill="#5B7DE0"/>
<path d="M312.967 262.688C312.967 262.688 312.319 260.707 314.199 257.026C316.079 253.344 317.319 251.183 317.319 251.183C317.319 251.183 320.189 255.294 318.512 258.905C317.251 261.476 315.777 263.936 314.105 266.261L312.967 262.688Z" fill="#5B7DE0"/>
<path d="M318.723 279.24C318.723 279.24 318.965 277.165 322.194 274.56C325.423 271.955 327.482 270.551 327.482 270.551C327.482 270.551 328.387 275.48 325.361 278.07C323.146 279.886 320.782 281.512 318.294 282.929L318.723 279.24Z" fill="#5B7DE0"/>
<path d="M317.873 274.154C317.873 274.154 317.514 272.103 314.145 269.724C310.775 267.345 308.63 266.019 308.63 266.019C308.63 266.019 308.014 270.995 311.18 273.406C313.496 275.093 315.948 276.583 318.512 277.859L317.873 274.154Z" fill="#5B7DE0"/>
<path d="M317.826 285.332C317.826 285.332 318.005 283.249 315.338 280.09C312.67 276.931 310.946 275.114 310.946 275.114C310.946 275.114 309.09 279.794 311.547 282.914C313.359 285.129 315.356 287.188 317.514 289.068L317.826 285.332Z" fill="#5B7DE0"/>
<path d="M301.501 223.743C302.018 225.855 302.648 227.938 303.388 229.983C305.549 235.661 309.043 238.961 311.103 244.078C313.162 249.194 311.103 256.558 313.131 263.258C315.159 269.958 318.497 273.25 318.528 277.93C318.559 282.61 316.711 295.62 316.711 295.62" stroke="#263238" stroke-width="0.75" stroke-linecap="round" stroke-linejoin="round"/>
<path d="M302.905 229.055L299.387 227.206" stroke="#263238" stroke-width="0.75" stroke-linecap="round" stroke-linejoin="round"/>
<path d="M302.281 226.333L303.186 223.805" stroke="#263238" stroke-width="0.75" stroke-linecap="round" stroke-linejoin="round"/>
<path d="M310.892 243.859C310.892 243.859 307.951 242.362 304.948 240.88" stroke="#263238" stroke-width="0.75" stroke-linecap="round" stroke-linejoin="round"/>
<path d="M308.864 239.39C309.799 236.896 310.942 234.485 312.28 232.183" stroke="#263238" stroke-width="0.75" stroke-linecap="round" stroke-linejoin="round"/>
<path d="M312.6 261.604C310.643 259.131 308.339 256.953 305.76 255.138" stroke="#263238" stroke-width="0.75" stroke-linecap="round" stroke-linejoin="round"/>
<path d="M313.63 264.42C314.095 262.428 314.726 260.479 315.517 258.593C316.64 256.097 316.812 255.778 316.812 255.778" stroke="#263238" stroke-width="0.75" stroke-linecap="round" stroke-linejoin="round"/>
<path d="M318.364 281.486C319.508 280.078 320.774 278.773 322.147 277.586C323.019 276.94 323.838 276.226 324.596 275.449" stroke="#263238" stroke-width="0.75" stroke-linecap="round" stroke-linejoin="round"/>
<path d="M318.528 277.93C317.587 276.41 316.531 274.966 315.369 273.608C314.227 272.363 312.985 271.212 311.656 270.169" stroke="#263238" stroke-width="0.75" stroke-linecap="round" stroke-linejoin="round"/>
<path d="M317.514 289.068C317.395 287.484 316.856 285.96 315.954 284.653C314.511 282.75 312.834 280.223 312.116 279.193" stroke="#263238" stroke-width="0.75" stroke-linecap="round" stroke-linejoin="round"/>
<path d="M310.915 293.935H333.293V305.503C333.293 306.018 333.089 306.512 332.725 306.876C332.36 307.24 331.866 307.445 331.351 307.445H312.857C312.342 307.445 311.848 307.24 311.484 306.876C311.12 306.512 310.915 306.018 310.915 305.503V293.935Z" fill="#263238" stroke="#263238" stroke-linecap="round" stroke-linejoin="round"/>
<path d="M47.5874 195.905C47.5874 195.905 47.5874 193.112 43.6874 189.212C39.7874 185.312 37.2602 183.082 37.2602 183.082C37.2602 183.082 35.3102 189.493 38.9294 193.393C41.5967 196.137 44.4874 198.655 47.5718 200.92L47.5874 195.905Z" fill="#5B7DE0"/>
<path d="M41.9402 213.307C41.9402 213.307 41.9402 210.522 38.0402 206.622C34.1402 202.722 31.613 200.46 31.613 200.46C31.613 200.46 29.663 206.864 33.2822 210.772C35.9521 213.526 38.8483 216.052 41.9402 218.322V213.307Z" fill="#5B7DE0"/>
<path d="M47.3454 200.647C47.3454 200.647 47.634 197.878 51.9318 194.407C56.2296 190.936 58.9518 188.994 58.9518 188.994C58.9518 188.994 60.2154 195.569 56.1984 199.072C53.2657 201.516 50.1349 203.713 46.8384 205.639L47.3454 200.647Z" fill="#5B7DE0"/>
<path d="M40.5049 221.208C40.5049 221.208 41.0899 218.478 45.7153 215.483C50.3407 212.488 53.2735 210.803 53.2735 210.803C53.2735 210.803 53.8351 217.472 49.4749 220.529C46.2943 222.656 42.9416 224.514 39.4519 226.083L40.5049 221.208Z" fill="#5B7DE0"/>
<path d="M41.792 243.617C41.792 243.617 41.792 240.833 45.692 236.925C49.592 233.017 52.0802 230.794 52.0802 230.794C52.0802 230.794 54.0302 237.206 50.4032 241.106C47.742 243.853 44.8535 246.371 41.7686 248.633L41.792 243.617Z" fill="#5B7DE0"/>
<path d="M41.7216 249.085C41.7216 249.085 42.1194 246.332 38.8122 241.909C35.505 237.487 33.3522 234.928 33.3522 234.928C33.3522 234.928 30.513 240.997 33.5394 245.38C35.789 248.475 38.2938 251.377 41.0274 254.054L41.7216 249.085Z" fill="#5B7DE0"/>
<path d="M37.8762 265.301C37.8762 265.301 37.8762 262.517 41.7762 258.609C45.6762 254.701 48.18 252.478 48.18 252.478C48.18 252.478 50.13 258.89 46.5108 262.79C43.8435 265.534 40.9528 268.052 37.8684 270.317L37.8762 265.301Z" fill="#5B7DE0"/>
<path d="M40.4815 280.02C40.4815 280.02 39.7717 277.329 42.5641 272.563C45.3565 267.797 47.2441 265.005 47.2441 265.005C47.2441 265.005 50.7229 270.66 48.1801 275.387C46.2961 278.714 44.1384 281.879 41.7295 284.848L40.4815 280.02Z" fill="#5B7DE0"/>
<path d="M47.9384 195.187C47.7441 198.091 47.3873 200.981 46.8698 203.845C45.3098 211.809 41.4722 216.949 39.9356 224.125C38.399 231.301 42.8216 240.599 41.636 249.865C40.4504 259.132 36.8468 264.248 37.8764 270.418C38.906 276.588 44.4284 293.904 44.4284 293.904" stroke="#263238" stroke-width="0.75" stroke-linecap="round" stroke-linejoin="round"/>
<path d="M47.3064 202.504L51.5106 199.274" stroke="#263238" stroke-width="0.75" stroke-linecap="round" stroke-linejoin="round"/>
<path d="M47.5016 198.783L45.7388 195.655" stroke="#263238" stroke-width="0.75" stroke-linecap="round" stroke-linejoin="round"/>
<path d="M40.1694 223.86C40.1694 223.86 43.6872 221.216 47.3064 218.579" stroke="#263238" stroke-width="0.75" stroke-linecap="round" stroke-linejoin="round"/>
<path d="M41.7371 217.831C40.0316 214.613 38.0091 211.575 35.7 208.759" stroke="#263238" stroke-width="0.75" stroke-linecap="round" stroke-linejoin="round"/>
<path d="M41.9402 247.58C43.9512 243.876 46.4893 240.484 49.475 237.51" stroke="#263238" stroke-width="0.75" stroke-linecap="round" stroke-linejoin="round"/>
<path d="M41.238 251.495C40.1723 248.981 38.8991 246.56 37.4316 244.257C35.3724 241.223 35.0916 240.833 35.0916 240.833" stroke="#263238" stroke-width="0.75" stroke-linecap="round" stroke-linejoin="round"/>
<path d="M37.8762 270.418C38.769 268.204 39.8276 266.061 41.043 264.007C42.2641 262.106 43.6389 260.308 45.1536 258.632" stroke="#263238" stroke-width="0.75" stroke-linecap="round" stroke-linejoin="round"/>
<path d="M41.7528 284.848C41.5486 282.735 41.9121 280.605 42.8058 278.678C44.2722 275.839 45.9258 272.126 46.62 270.66" stroke="#263238" stroke-width="0.75" stroke-linecap="round" stroke-linejoin="round"/>
<path d="M22.0345 233.134C22.0345 233.134 21.7381 231.387 23.7583 228.517C25.7785 225.646 27.1123 223.977 27.1123 223.977C27.1123 223.977 29.0311 227.783 27.1825 230.623C25.8091 232.633 24.2697 234.524 22.5805 236.278L22.0345 233.134Z" fill="#5B7DE0"/>
<path d="M27.4788 243.438C27.4788 243.438 27.1746 241.691 29.2026 238.82C31.2306 235.95 32.5566 234.273 32.5566 234.273C32.5566 234.273 34.4754 238.087 32.6268 240.926C31.2534 242.937 29.714 244.828 28.0248 246.581L27.4788 243.438Z" fill="#5B7DE0"/>
<path d="M22.7053 236.083C22.7053 236.083 22.2217 234.382 19.1563 232.674C16.0909 230.966 14.1643 230.038 14.1643 230.038C14.1643 230.038 14.0863 234.296 16.9801 236.059C19.0891 237.281 21.2963 238.324 23.5789 239.179L22.7053 236.083Z" fill="#5B7DE0"/>
<path d="M29.2261 248.235C29.2261 248.235 28.5631 246.589 25.3261 245.209C22.0891 243.828 20.1001 243.11 20.1001 243.11C20.1001 243.11 20.4745 247.361 23.5399 248.804C25.7652 249.792 28.069 250.593 30.4273 251.199L29.2261 248.235Z" fill="#5B7DE0"/>
<path d="M30.8564 262.423C30.8564 262.423 30.5522 260.676 27.6818 258.656C24.8114 256.636 23.0018 255.536 23.0018 255.536C23.0018 255.536 22.4402 259.74 25.1624 261.791C27.1342 263.223 29.2214 264.488 31.4024 265.574L30.8564 262.423Z" fill="#5B7DE0"/>
<path d="M31.4881 265.847C31.4881 265.847 30.9421 264.163 32.5333 261.035C34.1245 257.907 35.2087 256.066 35.2087 256.066C35.2087 256.066 37.6501 259.561 36.2227 262.634C35.1517 264.815 33.8993 266.902 32.4787 268.874L31.4881 265.847Z" fill="#5B7DE0"/>
<path d="M36.3864 279.95C36.3864 279.95 36.5892 278.187 39.3426 276.003C42.096 273.819 43.8354 272.594 43.8354 272.594C43.8354 272.594 44.6154 276.783 42.0336 278.99C40.1482 280.539 38.1366 281.927 36.0198 283.14L36.3864 279.95Z" fill="#5B7DE0"/>
<path d="M35.7 275.597C35.7 275.597 35.3959 273.85 32.5254 271.83C29.655 269.81 27.8454 268.71 27.8454 268.71C27.8454 268.71 27.315 272.945 30.0138 274.997C31.9848 276.429 34.0721 277.695 36.2538 278.78L35.7 275.597Z" fill="#5B7DE0"/>
<path d="M35.6222 285.098C35.6222 285.098 35.7704 283.335 33.5084 280.644C31.2464 277.953 29.7722 276.416 29.7722 276.416C29.7722 276.416 28.2122 280.371 30.2792 283.046C31.8232 284.929 33.5217 286.68 35.357 288.28L35.6222 285.098Z" fill="#5B7DE0"/>
<path d="M21.738 232.729C22.1793 234.526 22.7156 236.299 23.3448 238.04C25.1778 242.869 28.1574 245.669 29.9046 250.021C31.6518 254.374 29.9046 260.66 31.6284 266.331C33.3522 272.002 36.1914 274.833 36.2148 278.811C36.2382 282.789 34.6548 293.857 34.6548 293.857" stroke="#263238" stroke-width="0.75" stroke-linecap="round" stroke-linejoin="round"/>
<path d="M22.9315 237.245L19.9441 235.677" stroke="#263238" stroke-width="0.75" stroke-linecap="round" stroke-linejoin="round"/>
<path d="M22.4089 234.936L23.1733 232.783" stroke="#263238" stroke-width="0.75" stroke-linecap="round" stroke-linejoin="round"/>
<path d="M29.7253 249.834C29.7253 249.834 27.2293 248.563 24.6709 247.299" stroke="#263238" stroke-width="0.75" stroke-linecap="round" stroke-linejoin="round"/>
<path d="M28.0015 246.035C28.8005 243.915 29.7736 241.864 30.9109 239.905" stroke="#263238" stroke-width="0.75" stroke-linecap="round" stroke-linejoin="round"/>
<path d="M31.1994 264.927C29.5329 262.836 27.573 260.997 25.3806 259.467" stroke="#263238" stroke-width="0.75" stroke-linecap="round" stroke-linejoin="round"/>
<path d="M32.0496 267.306C32.4475 265.613 32.9849 263.957 33.6564 262.353C34.6158 260.231 34.7562 259.951 34.7562 259.951" stroke="#263238" stroke-width="0.75" stroke-linecap="round" stroke-linejoin="round"/>
<path d="M36.0823 281.83C37.0524 280.626 38.1278 279.512 39.2959 278.499C40.0377 277.95 40.7341 277.342 41.3785 276.682" stroke="#263238" stroke-width="0.75" stroke-linecap="round" stroke-linejoin="round"/>
<path d="M36.2148 278.811C35.4165 277.519 34.5194 276.291 33.5316 275.137C32.5737 274.076 31.5302 273.095 30.4116 272.204" stroke="#263238" stroke-width="0.75" stroke-linecap="round" stroke-linejoin="round"/>
<path d="M35.3569 288.28C35.2518 286.931 34.7916 285.634 34.0231 284.521C32.7985 282.906 31.3477 280.753 30.7627 279.911" stroke="#263238" stroke-width="0.75" stroke-linecap="round" stroke-linejoin="round"/>
<path d="M28.5552 293.935H50.9334V305.503C50.9334 305.76 50.8822 306.015 50.7826 306.253C50.6831 306.491 50.5372 306.706 50.3535 306.887C50.1699 307.068 49.9521 307.21 49.7128 307.306C49.4736 307.402 49.2176 307.449 48.96 307.445H30.4974C29.9823 307.445 29.4883 307.24 29.124 306.876C28.7598 306.512 28.5552 306.018 28.5552 305.503V293.935Z" fill="#263238" stroke="#263238" stroke-linecap="round" stroke-linejoin="round"/>
<path d="M241.729 148.98C238.999 152.379 237.145 156.397 236.332 160.68C234.896 167.957 231.363 181.631 231.808 186.373C232.252 191.116 233.368 193.76 237.65 194.532C241.932 195.304 244.373 191.552 245.263 188.354C245.826 186.25 246.266 184.114 246.581 181.958L247.462 164.58C247.462 164.58 245.902 154.136 245.161 151.936C244.42 149.737 241.729 148.98 241.729 148.98Z" fill="#5B7DE0" stroke="#263238" stroke-linecap="round" stroke-linejoin="round"/>
<path d="M299.09 145.501C299.09 145.501 300.65 145.158 302.132 150.571C303.614 155.984 305.4 163.753 308.325 173.332C311.25 182.91 311.82 186.069 311.594 188.206C311.367 190.343 309.683 192.715 303.794 192.715C297.905 192.715 295.214 190.46 293.654 185.39C292.094 180.32 292.32 164.658 292.211 162.63C292.101 160.602 297.281 144.487 299.09 145.501Z" fill="#5B7DE0" stroke="#263238" stroke-linecap="round" stroke-linejoin="round"/>
<path d="M258.858 313.747C258.858 313.747 255.028 317.803 252.774 320.401C250.52 322.998 249.732 324.566 253.445 326.141C257.158 327.717 262.914 325.361 264.607 322.764C266.299 320.167 269.903 317.242 269.903 317.242C269.903 317.242 271.814 315.104 269.333 312.062C266.853 309.02 259.981 312.507 258.858 313.747Z" fill="white" stroke="#263238" stroke-linecap="round" stroke-linejoin="round"/>
<path d="M281.845 317.132C281.845 317.132 285.674 317.694 287.702 319.472C289.73 321.251 296.836 325.221 301.563 323.302C306.29 321.383 303.256 318.232 300.666 315.978C299.212 314.688 297.624 313.556 295.931 312.601C295.931 312.601 288.381 312.039 285.011 313.724C281.642 315.409 281.845 317.132 281.845 317.132Z" fill="white" stroke="#263238" stroke-linecap="round" stroke-linejoin="round"/>
<path d="M254.459 264.724C254.459 264.724 256.268 278.249 255.364 282.305C254.459 286.361 251.869 288.733 253.804 292.679C255.235 295.731 256.283 298.948 256.924 302.258C257.15 303.607 255.91 303.943 256.924 305.378C257.663 306.303 258.269 307.327 258.725 308.42C258.725 308.763 257.376 310.674 257.376 311.126C257.376 311.579 258.055 314.395 258.055 314.395C258.055 314.395 261.658 313.615 264.248 314.621C266.124 315.429 267.901 316.449 269.544 317.663C269.544 317.663 271.884 316.758 272.703 315.409C273.145 314.701 273.412 313.899 273.483 313.069C273.592 312.616 274.723 310.245 274.614 308.443C274.505 306.641 273.257 302.812 273.257 300.557C273.257 298.303 274.949 295.823 274.949 292.219C274.949 288.616 273.257 265.512 273.257 265.512L274.817 264.943C274.817 264.943 277.297 278.694 277.297 285.121C277.297 291.548 275.386 299.543 276.626 301.119C277.867 302.695 279.325 304.052 279.325 304.387C279.325 304.723 277.859 307.203 278.202 308.443C278.737 310.072 279.188 311.728 279.551 313.404C279.551 314.083 280.792 316.672 281.806 317.125C282.82 317.577 283.366 316.555 289.356 315.323C295.346 314.09 298.716 314.418 298.147 312.616C297.577 310.814 297.023 308.443 296.345 307.991C295.666 307.538 296.571 307.211 296.345 305.518C296.119 303.826 294.878 302.024 293.755 299.317C292.632 296.611 294.2 293.686 294.652 290.862C295.105 288.038 294.426 283.842 293.303 279.256C292.18 274.669 293.186 263.367 293.186 263.367L293.755 258.976C293.755 258.976 276.509 260.536 265.917 260.434L254.537 260.325C254.537 260.325 253.788 261.121 254.459 264.724Z" fill="#263238" stroke="#263238" stroke-linecap="round" stroke-linejoin="round"/>
<path d="M298.186 217.62C298.186 217.62 299.746 238.134 301.789 248.82C302.965 254.851 303.711 260.958 304.02 267.095H295.822C295.479 267.095 296.384 229.117 296.602 225.755C296.899 223.004 297.429 220.282 298.186 217.62Z" fill="#5B7DE0" stroke="#263238" stroke-linecap="round" stroke-linejoin="round"/>
<path d="M264.24 134.16C264.24 134.16 254.662 140.579 249.709 142.834C244.756 145.088 242.041 148.021 241.706 149.074C241.37 150.127 247.111 166.312 247.111 166.312C247.111 166.312 246.776 219.843 246.776 228.86C246.776 237.877 243.96 265.028 244.295 265.028C244.631 265.028 253.655 270.894 266.042 271.229C278.428 271.565 282.422 269.763 286.322 269.763C290.222 269.763 298.022 269.763 298.154 268.64C298.287 267.517 298.381 242.603 298.49 230.997C298.599 219.391 298.716 211.162 298.49 209.251C298.264 207.34 295.112 166.085 295.112 166.085C295.112 166.085 297.452 159.214 298.833 153.691C300.214 148.169 300.182 147.49 298.49 145.018C296.797 142.545 284.099 135.806 281.845 134.94C279.075 133.97 276.191 133.365 273.265 133.138C271.143 132.99 264.24 134.16 264.24 134.16Z" fill="#5B7DE0" stroke="#263238" stroke-linecap="round" stroke-linejoin="round"/>
<path d="M243.079 179.985C243.079 179.985 244.545 183.362 246.347 184.829C248.149 186.295 252.322 186.974 253.219 189.228C254.116 191.482 253.219 193.167 252.205 195.874C251.191 198.58 251.76 203.089 248.039 203.674C244.319 204.259 243.196 202.894 240.146 200.741C237.096 198.588 235.193 198.26 233.391 194.992C231.589 191.724 231.051 187.192 232.611 184.743" fill="#5B7DE0"/>
<path d="M243.079 179.985C243.079 179.985 244.545 183.362 246.347 184.829C248.149 186.295 252.322 186.974 253.219 189.228C254.116 191.482 253.219 193.167 252.205 195.874C251.191 198.58 251.76 203.089 248.039 203.674C244.319 204.259 243.196 202.894 240.146 200.741C237.096 198.588 235.193 198.26 233.391 194.992C231.589 191.724 231.051 187.192 232.611 184.743" stroke="#263238" stroke-linecap="round" stroke-linejoin="round"/>
<path d="M263.819 129.722L263.46 139.191C263.46 139.191 262.563 140.54 267.968 140.876C271.443 141.058 274.926 140.796 278.335 140.096L277.438 129.847C277.438 129.847 271.798 132.187 268.53 131.087C266.997 130.51 265.422 130.054 263.819 129.722Z" fill="white" stroke="#263238" stroke-linecap="round" stroke-linejoin="round"/>
<path d="M261.674 127.358C261.674 127.358 260.894 138.278 260.324 141.554C259.755 144.83 259.872 146.851 261.104 147.638C262.337 148.426 269.552 151.25 273.272 151.024C276.993 150.797 282.632 147.412 283.077 146.398C283.522 145.384 279.707 129.48 279.707 129.48L279.138 130.159C279.138 130.159 280.152 138.497 279.817 138.739C279.481 138.98 266.408 138.06 264.037 137.959C261.666 137.857 262.352 137.732 262.352 137.732L262.235 128.154L261.674 127.358Z" fill="white" stroke="#263238" stroke-linecap="round" stroke-linejoin="round"/>
<path d="M261.315 140.353C261.315 140.353 273.631 142.171 281.018 140.743" stroke="#263238" stroke-width="0.5" stroke-miterlimit="10"/>
<path d="M260.8 143.208C260.8 143.208 269.38 146.835 281.018 143.59" stroke="#263238" stroke-width="0.5" stroke-miterlimit="10"/>
<path d="M261.705 146.578C261.705 146.578 269.872 150.985 281.018 146.312" stroke="#263238" stroke-width="0.5" stroke-miterlimit="10"/>
<path d="M281.626 115.861C281.907 112.398 282.141 108.841 281.283 107.071C279.934 104.255 275.87 100.987 270.012 101.213C264.154 101.439 259.193 103.693 259.31 110.9C259.31 110.9 259.56 113.045 259.849 115.674C259.312 116.822 259.125 118.102 259.31 119.356C259.492 120.558 259.914 121.712 260.551 122.749C260.605 123.419 260.644 123.997 260.66 124.426C260.769 127.468 262.797 131.071 264.607 132.311C266.416 133.552 269.786 135.47 271.931 135.47C274.076 135.47 277.898 133.442 279.731 130.51C281.15 128.17 281.291 126.61 281.291 123.856H281.4C281.723 122.41 281.913 120.938 281.969 119.457C282.015 118.248 281.9 117.039 281.626 115.861Z" fill="white" stroke="#263238" stroke-linecap="round" stroke-linejoin="round"/>
<path d="M260.34 116.54C260.34 116.54 260.675 119.356 261.237 119.239C261.799 119.122 262.477 115.073 262.477 115.073L260.34 116.54Z" fill="#263238" stroke="#263238" stroke-linecap="round" stroke-linejoin="round"/>
<path d="M279.481 116.22C279.481 116.22 279.481 119.379 280.261 119.831C281.041 120.284 281.611 117.125 281.611 117.125C280.972 116.678 280.246 116.37 279.481 116.22Z" fill="#263238" stroke="#263238" stroke-linecap="round" stroke-linejoin="round"/>
<path d="M281.283 107.071C279.934 104.255 275.87 100.987 270.012 101.213C264.154 101.439 259.193 103.693 259.31 110.9C259.31 110.9 259.56 113.045 259.849 115.674C259.493 116.436 259.289 117.26 259.248 118.1C261.44 116.345 265.543 113.833 270.691 114.286C274.697 114.742 278.547 116.099 281.954 118.256C281.918 117.449 281.808 116.648 281.626 115.861C281.907 112.398 282.18 108.865 281.283 107.071Z" fill="#5B7DE0" stroke="#263238" stroke-linecap="round" stroke-linejoin="round"/>
<path d="M269.224 118.56L268.545 122.616C268.545 122.616 267.305 122.725 267.765 123.513C268.226 124.301 270.581 125.206 271.712 124.87C272.843 124.535 273.966 123.404 273.849 122.951C273.815 122.816 273.744 122.693 273.646 122.594C273.547 122.495 273.423 122.425 273.288 122.39L271.821 118.217" stroke="#263238" stroke-linecap="round" stroke-linejoin="round"/>
<path d="M267.984 126.906C270.148 127.373 272.394 127.295 274.52 126.68" stroke="#263238" stroke-linecap="round" stroke-linejoin="round"/>
<path d="M266.744 118.396C266.744 118.989 266.44 119.465 266.065 119.465C265.691 119.465 265.395 118.989 265.395 118.396C265.395 117.803 265.699 117.328 266.065 117.328C266.432 117.328 266.744 117.78 266.744 118.396Z" fill="#263238"/>
<path d="M275.308 118.342C275.308 118.934 275.004 119.41 274.637 119.41C274.271 119.41 273.959 118.934 273.959 118.342C273.959 117.749 274.263 117.273 274.637 117.273C275.012 117.273 275.308 117.78 275.308 118.342Z" fill="#263238"/>
<path d="M264.154 116.766C264.154 116.766 264.934 114.847 267.422 115.526" stroke="#263238" stroke-linecap="round" stroke-linejoin="round"/>
<path d="M272.492 115.635C272.492 115.635 274.832 113.942 276.548 116.875" stroke="#263238" stroke-linecap="round" stroke-linejoin="round"/>
<path d="M251.191 194.072C251.191 194.072 258.07 195.632 259.646 195.312C261.711 194.926 263.602 193.9 265.051 192.379C267.087 190.351 268.772 188.659 268.772 190.351C268.779 191.019 268.653 191.682 268.401 192.3C268.149 192.919 267.777 193.482 267.305 193.955C266.525 194.86 265.051 195.874 264.716 197.34C264.38 198.806 264.833 199.93 266.635 200.608C268.436 201.287 274.068 202.293 274.068 203.728C274.068 205.163 273.616 208.58 271.588 209.703C269.56 210.826 264.607 210.038 264.607 210.038C264.607 210.038 268.663 212.293 267.875 212.862C267.087 213.431 264.716 212.636 263.593 211.622C262.469 210.608 262.033 210.491 258.741 208.127C255.449 205.764 252.657 202.94 251.081 202.043C250.228 201.644 249.439 201.118 248.741 200.483C247.837 199.703 247.501 198.143 248.172 196.318C248.401 195.778 248.739 195.29 249.166 194.888C249.593 194.485 250.099 194.175 250.652 193.978L251.191 194.072Z" fill="white" stroke="#263238" stroke-linecap="round" stroke-linejoin="round"/>
<path d="M304.722 181.225C304.722 181.225 296.61 182.785 295.822 183.362C295.034 183.94 295.822 186.295 295.822 186.295C295.822 186.295 288.943 189.563 286.353 191.365C283.763 193.167 286.127 196.778 286.244 197.223C286.244 197.223 288.272 203.876 291.649 206.131C295.027 208.385 298.521 207.589 301.906 203.986C305.291 200.382 307.429 195.406 309.004 193.729C310.58 192.052 312.272 190.46 311.711 186.709C311.149 182.957 308.216 182.536 308.216 182.536" fill="#5B7DE0"/>
<path d="M304.722 181.225C304.722 181.225 296.61 182.785 295.822 183.362C295.034 183.94 295.822 186.295 295.822 186.295C295.822 186.295 288.943 189.563 286.353 191.365C283.763 193.167 286.127 196.778 286.244 197.223C286.244 197.223 288.272 203.876 291.649 206.131C295.027 208.385 298.521 207.589 301.906 203.986C305.291 200.382 307.429 195.406 309.004 193.729C310.58 192.052 312.272 190.46 311.711 186.709C311.149 182.957 308.216 182.536 308.216 182.536" stroke="#263238" stroke-linecap="round" stroke-linejoin="round"/>
<path d="M288.155 196.1C288.155 196.1 282.976 197.449 281.509 197.566C280.043 197.683 279.817 197.902 278.92 197.223C278.023 196.544 273.842 194.103 271.9 191.818C269.957 189.532 268.514 189.111 268.741 190.351C268.967 191.591 268.514 192.488 269.872 193.393C271.229 194.298 272.57 196.778 272.57 197.792C272.57 198.806 272.461 199.142 269.645 200.132C266.83 201.123 260.402 202.387 261.065 203.174C261.728 203.962 263.093 204.188 264.56 204.079C266.026 203.97 272.11 203.065 272.555 203.401C272.702 203.551 272.812 203.733 272.876 203.933C272.939 204.133 272.956 204.346 272.923 204.553C272.891 204.761 272.81 204.958 272.688 205.129C272.566 205.3 272.405 205.44 272.219 205.538C271.205 206.216 267.602 206.216 265.457 206.443C263.312 206.669 263.203 207.223 264.107 207.683C265.56 208.225 267.105 208.477 268.655 208.424C270.457 208.424 272.555 208.244 271.658 208.806C270.761 209.368 269.513 209.485 267.259 209.82C265.004 210.155 264.217 209.149 264.56 210.046C264.903 210.943 267.602 210.951 270.979 210.826C274.054 210.669 277.039 209.741 279.661 208.127C281.915 206.77 290.136 204.742 290.705 204.298C291.275 203.853 292.164 201.248 291.602 198.097C291.041 194.945 288.155 196.1 288.155 196.1Z" fill="white" stroke="#263238" stroke-linecap="round" stroke-linejoin="round"/>
<path d="M297.062 182.91C299.258 181.093 301.637 179.509 304.161 178.183" stroke="#263238" stroke-linecap="round" stroke-linejoin="round"/>
<path d="M265.956 204.142C265.956 204.142 272.368 203.408 273.015 203.315C273.662 203.221 274.848 203.954 274.294 204.781C273.74 205.608 273.467 205.421 271.174 205.881C268.898 206.227 266.597 206.381 264.295 206.341" fill="white"/>
<path d="M265.956 204.142C265.956 204.142 272.368 203.408 273.015 203.315C273.662 203.221 274.848 203.954 274.294 204.781C273.74 205.608 273.467 205.421 271.174 205.881C268.898 206.227 266.597 206.381 264.295 206.341" stroke="#263238" stroke-linecap="round" stroke-linejoin="round"/>
<path d="M266.689 208.541C266.689 208.541 273.834 208.081 273.655 208.634C273.475 209.188 273.015 209.914 270.449 210.101C267.883 210.288 264.989 210.467 262.563 209.274" fill="white"/>
<path d="M266.689 208.541C266.689 208.541 273.834 208.081 273.655 208.634C273.475 209.188 273.015 209.914 270.449 210.101C267.883 210.288 264.989 210.467 262.563 209.274" stroke="#263238" stroke-linecap="round" stroke-linejoin="round"/>
<path d="M195.226 308.194C195.226 308.194 196.442 309.403 191.591 312.367C186.739 315.331 182.691 316.68 182.691 318.435C182.691 320.19 188.081 321.937 193.611 320.588C199.141 319.238 201.411 318.841 204.531 318.302C207.651 317.764 208.579 315.065 208.579 311.282C208.579 307.499 200.358 306.602 199.414 306.431C198.47 306.259 195.904 306.712 195.226 308.194Z" fill="white" stroke="#263238" stroke-linecap="round" stroke-linejoin="round"/>
<path d="M207.355 311.29C205.313 314.349 202.814 317.077 199.945 319.379C195.764 322.499 195.226 323.957 197.386 324.769C199.547 325.58 205.74 325.845 209.921 324.23C214.102 322.616 216.122 320.19 217.331 319.106C218.54 318.022 219.218 318.7 219.218 314.387C219.218 310.073 214.632 308.591 210.865 308.864C207.097 309.137 207.355 311.29 207.355 311.29Z" fill="white" stroke="#263238" stroke-linecap="round" stroke-linejoin="round"/>
<path d="M190.92 223.415C190.92 223.415 192.137 247.946 192.542 255.091C192.948 262.236 195.912 289.052 196.442 295.386C196.973 301.72 196.981 303.607 196.981 303.607C196.981 303.607 194.555 305.362 194.555 305.768C194.555 306.173 194.282 309.941 194.282 309.941C196.072 310.927 197.973 311.696 199.945 312.234C202.111 312.722 204.341 312.859 206.551 312.64C206.551 312.64 210.997 314.122 214.772 315.198C218.548 316.274 220.03 315.736 220.03 315.736C220.03 315.736 221.106 310.346 221.371 308.591C221.636 306.836 226.223 288.241 226.223 279.731C226.223 271.222 225.146 267.329 223.532 262.345C221.917 257.361 225.685 239.561 227.034 233.095C227.808 229.488 228.393 225.843 228.789 222.175C228.789 222.175 217.198 228.134 190.92 223.415Z" fill="#263238" stroke="#263238" stroke-linecap="round" stroke-linejoin="round"/>
<path d="M206.013 231.66C206.013 231.66 205.334 249.6 205.334 256.456C205.334 263.312 207.089 271.69 207.893 279.778C208.696 287.867 208.166 301.072 207.222 303.365C206.278 305.659 205.607 306.485 205.74 308.217C205.873 309.949 206.013 312.39 206.013 312.39" stroke="white" stroke-linecap="round" stroke-linejoin="round"/>
<path d="M203.852 127.312C203.852 127.312 203.072 124.886 201.824 125.83C200.576 126.773 201.427 128.528 202.503 130.283C203.579 132.038 204.788 132.436 204.929 131.492C205.069 130.549 203.852 127.312 203.852 127.312Z" fill="white" stroke="#263238" stroke-linecap="round" stroke-linejoin="round"/>
<path d="M203.852 128.396L202.503 124.496C202.503 124.496 196.848 122.203 198.603 116.54C200.358 110.877 213.836 105.76 217.471 105.76C221.106 105.76 228.118 110.612 229.335 116.275C230.552 121.937 226.504 127.054 226.504 127.054C226.504 127.054 224.749 132.038 223.384 131.773C222.019 131.508 222.838 127.592 221.09 124.496C219.343 121.399 218.259 119.816 216.371 120.596C214.484 121.376 206.668 123.716 205.997 124.769C205.327 125.822 204.125 129.067 203.852 128.396Z" fill="#263238" stroke="#263238" stroke-linecap="round" stroke-linejoin="round"/>
<path d="M231.215 183.924L231.886 187.426L223.532 200.366L225.419 203.33C229.382 200.688 233.003 197.565 236.199 194.033C241.589 188.105 242.127 187.294 242.127 184.868C242.127 182.442 240.247 178.261 240.247 178.261C240.247 178.261 236.472 183.924 231.215 183.924Z" fill="white" stroke="#263238" stroke-linecap="round" stroke-linejoin="round"/>
<path d="M185.522 176.108C185.522 176.108 182.824 182.575 183.37 184.595C183.916 186.615 193.205 198.479 193.205 198.479L194.82 194.033C194.82 194.033 191.318 186.755 191.318 184.33C191.318 181.904 192.535 177.185 192.535 177.185L185.522 176.108Z" stroke="#263238" stroke-linecap="round" stroke-linejoin="round"/>
<path d="M209.383 144.027C209.383 144.027 197.792 148.473 195.631 149.152C193.471 149.83 191.989 150.228 191.856 150.899C191.723 151.57 185.257 168.152 184.056 170.446C182.855 172.739 181.225 175.297 181.225 175.297C182.795 176.279 184.414 177.18 186.076 177.996C187.772 178.737 189.532 179.322 191.333 179.743L192.113 189.049L184.157 224.086C184.157 224.086 200.062 228.532 210.677 228.134C217.436 227.904 224.119 226.631 230.489 224.359C232.517 223.681 235.614 222.472 235.614 222.472L225.474 184.33L226.254 178.667L226.792 184.197C226.792 184.197 232.182 185.406 235.279 184.595C238.375 183.784 242.299 180.695 242.299 180.695L232.322 149.565L213.727 144.44L209.383 144.027Z" fill="#5B7DE0" stroke="#263238" stroke-linecap="round" stroke-linejoin="round"/>
<path d="M222.479 146.812L213.829 144.433L209.383 144.027L205.381 145.587C205.303 147.709 205.202 151.32 205.202 155.649C205.202 162.669 205.982 168.862 208.033 167.645C210.085 166.429 219.733 153.364 221.371 149.705C221.814 148.771 222.184 147.803 222.479 146.812Z" fill="#5B7DE0" stroke="#263238" stroke-linecap="round" stroke-linejoin="round"/>
<path d="M226.363 178.667C226.09 178.402 224.881 166.803 224.881 166.803" stroke="#263238" stroke-linecap="round" stroke-linejoin="round"/>
<path d="M191.318 179.743C191.318 179.743 190.374 175.165 190.647 173.41C190.92 171.655 192.8 161.281 192.8 161.281" stroke="#263238" stroke-linecap="round" stroke-linejoin="round"/>
<path d="M195.904 199.157C195.904 199.157 189.703 201.178 189.703 201.583C189.703 201.989 189.563 203.869 189.563 203.869L195.904 200.905V199.157Z" stroke="#263238" stroke-linecap="round" stroke-linejoin="round"/>
<path d="M212.346 200.101L212.073 201.848L225.552 205.351L226.223 204.009L212.346 200.101Z" stroke="#263238" stroke-linecap="round" stroke-linejoin="round"/>
<path d="M216.793 173.3C216.608 173.3 216.432 173.227 216.302 173.097C216.171 172.967 216.098 172.79 216.098 172.606C216.098 170.266 217.261 164.619 218.392 159.159C219.289 154.814 220.139 150.704 220.139 149.417C220.173 148.708 220.056 147.999 219.795 147.339C219.535 146.678 219.136 146.081 218.626 145.587C217.011 144.089 214.141 143.481 210.1 143.777C201.668 144.401 201.052 163.277 201.044 163.457C201.04 163.638 200.965 163.811 200.836 163.938C200.706 164.064 200.532 164.135 200.35 164.135C200.259 164.132 200.169 164.111 200.086 164.074C200.003 164.036 199.928 163.982 199.866 163.916C199.804 163.849 199.755 163.771 199.723 163.685C199.691 163.6 199.676 163.509 199.679 163.418C199.679 162.591 200.342 143.138 210.022 142.358C214.468 142.038 217.69 142.763 219.593 144.542C220.241 145.166 220.751 145.92 221.088 146.755C221.425 147.59 221.583 148.486 221.551 149.386C221.551 150.813 220.732 154.799 219.78 159.409C218.711 164.549 217.51 170.375 217.51 172.575C217.515 172.671 217.499 172.766 217.465 172.856C217.43 172.945 217.378 173.027 217.31 173.095C217.243 173.163 217.162 173.216 217.073 173.252C216.984 173.287 216.888 173.304 216.793 173.3Z" fill="#263238" stroke="#263238" stroke-linecap="round" stroke-linejoin="round"/>
<path d="M207.893 139.854C207.893 139.854 207.893 143.754 207.76 144.534C207.627 145.314 207.76 148.715 207.76 153.301C207.76 157.888 208.54 160.976 209.648 159.9C210.755 158.824 217.869 149.253 218.274 147.365C218.513 146.304 218.648 145.223 218.68 144.136L219.218 138.739C219.218 138.739 210.864 141.164 207.354 140.088" fill="white"/>
<path d="M207.893 139.854C207.893 139.854 207.893 143.754 207.76 144.534C207.627 145.314 207.76 148.715 207.76 153.301C207.76 157.888 208.54 160.976 209.648 159.9C210.755 158.824 217.869 149.253 218.274 147.365C218.513 146.304 218.648 145.223 218.68 144.136L219.218 138.739C219.218 138.739 210.864 141.164 207.354 140.088" stroke="#263238" stroke-linecap="round" stroke-linejoin="round"/>
<path d="M221.777 131.765C222.479 136.447 222.659 141.193 222.315 145.915C221.777 154.136 220.802 157.989 218.415 159.175C216.028 160.36 219.109 161.702 222.744 161.834C226.379 161.967 231.776 161.429 232.72 150.649C233.664 139.87 225.848 132.857 225.17 131.508C224.996 131.195 224.736 130.938 224.421 130.768C224.105 130.598 223.748 130.522 223.391 130.549C223.033 130.576 222.691 130.705 222.405 130.92C222.119 131.136 221.901 131.429 221.777 131.765Z" fill="#263238" stroke="#263238" stroke-linecap="round" stroke-linejoin="round"/>
<path d="M195.499 172.895H195.444C195.349 172.889 195.257 172.864 195.173 172.821C195.088 172.778 195.014 172.718 194.953 172.645C194.893 172.572 194.849 172.487 194.823 172.395C194.798 172.304 194.791 172.209 194.804 172.115C194.804 171.733 195.584 162.708 200.35 162.708C205.116 162.708 205.225 171.389 205.225 171.764C205.225 171.948 205.152 172.124 205.022 172.255C204.892 172.385 204.715 172.458 204.531 172.458C204.347 172.458 204.17 172.385 204.04 172.255C203.91 172.124 203.837 171.948 203.837 171.764C203.837 171.686 203.735 164.104 200.358 164.104C197.456 164.104 196.372 169.962 196.201 172.224C196.193 172.405 196.115 172.575 195.984 172.7C195.854 172.825 195.68 172.895 195.499 172.895Z" fill="#263238"/>
<path d="M195.499 171.662C195.499 171.662 195.499 178.402 195.764 179.743C196.029 181.085 199.406 183.924 203.447 185.679" stroke="#263238" stroke-width="2" stroke-linecap="round" stroke-linejoin="round"/>
<path d="M204.258 170.82C204.258 170.82 204.523 177.559 203.182 180.523C201.84 183.487 197.792 184.704 196.037 185.375" stroke="#263238" stroke-width="2" stroke-linecap="round" stroke-linejoin="round"/>
<path d="M205.334 185.944C205.31 185.639 205.172 185.355 204.947 185.147C204.722 184.94 204.427 184.825 204.122 184.825C203.816 184.825 203.521 184.94 203.296 185.147C203.072 185.355 202.933 185.639 202.909 185.944C202.895 186.112 202.917 186.28 202.971 186.439C203.026 186.598 203.113 186.743 203.227 186.867C203.341 186.99 203.48 187.089 203.634 187.156C203.787 187.224 203.954 187.258 204.122 187.258C204.29 187.258 204.456 187.224 204.61 187.156C204.764 187.089 204.902 186.99 205.016 186.867C205.13 186.743 205.217 186.598 205.272 186.439C205.327 186.28 205.348 186.112 205.334 185.944Z" fill="white" stroke="#263238" stroke-linecap="round" stroke-linejoin="round"/>
<path d="M196.981 185.679C196.982 185.438 196.912 185.202 196.779 185.001C196.647 184.8 196.457 184.643 196.235 184.549C196.013 184.456 195.768 184.431 195.531 184.477C195.295 184.523 195.077 184.638 194.906 184.808C194.735 184.978 194.619 185.195 194.571 185.431C194.523 185.667 194.547 185.912 194.639 186.135C194.731 186.358 194.887 186.548 195.087 186.682C195.287 186.816 195.523 186.888 195.764 186.888C196.085 186.888 196.394 186.761 196.622 186.534C196.85 186.308 196.979 186 196.981 185.679Z" fill="white" stroke="#263238" stroke-linecap="round" stroke-linejoin="round"/>
<path d="M220.833 175.165C220.835 174.337 220.59 173.528 220.132 172.839C219.673 172.15 219.02 171.613 218.256 171.296C217.492 170.978 216.65 170.895 215.839 171.056C215.027 171.217 214.281 171.615 213.696 172.201C213.111 172.786 212.712 173.531 212.551 174.343C212.39 175.155 212.474 175.996 212.791 176.76C213.109 177.525 213.646 178.177 214.334 178.636C215.023 179.095 215.832 179.339 216.66 179.338C217.766 179.336 218.826 178.895 219.609 178.113C220.391 177.331 220.831 176.271 220.833 175.165Z" fill="white" stroke="#263238" stroke-linecap="round" stroke-linejoin="round"/>
<path d="M218.946 175.165C218.946 174.711 218.811 174.267 218.558 173.89C218.306 173.512 217.948 173.219 217.528 173.045C217.109 172.872 216.647 172.827 216.202 172.916C215.757 173.005 215.348 173.224 215.028 173.546C214.708 173.867 214.49 174.277 214.402 174.722C214.315 175.167 214.361 175.629 214.536 176.048C214.711 176.466 215.006 176.824 215.384 177.075C215.762 177.326 216.206 177.459 216.66 177.458C217.267 177.456 217.848 177.213 218.277 176.783C218.705 176.354 218.946 175.771 218.946 175.165Z" fill="white" stroke="#263238" stroke-linecap="round" stroke-linejoin="round"/>
<path d="M218.945 117.881C218.945 117.881 207.222 122.46 205.74 123.24C205.102 123.626 204.425 123.942 203.72 124.184C203.72 124.184 204.391 134.425 204.664 137.124C204.937 139.823 209.242 142.381 213.017 142.249C216.793 142.116 219.889 140.088 220.568 138.879C221.246 137.67 223.126 134.027 223.126 134.027C223.126 134.027 227.572 133.247 227.806 129.308C228.04 125.369 226.73 126.188 225.248 127.015C223.766 127.842 222.955 128.365 222.955 128.365C223.243 126.935 223.002 125.449 222.276 124.184C221.106 122.195 219.218 119.769 218.945 117.881Z" fill="white" stroke="#263238" stroke-linecap="round" stroke-linejoin="round"/>
<path d="M209.383 130.416C209.383 130.416 210.459 132.031 211.403 131.898" stroke="#263238" stroke-linecap="round" stroke-linejoin="round"/>
<path d="M208.977 132.842C208.977 132.842 211.262 135.002 215.217 133.247" stroke="#263238" stroke-linecap="round" stroke-linejoin="round"/>
<path d="M214.772 127.179C214.772 127.179 217.534 125.97 219.086 128.123" stroke="#263238" stroke-width="1.5" stroke-linecap="round" stroke-linejoin="round"/>
<path d="M209.383 126.914C209.383 126.914 207.222 125.564 205.607 126.641" stroke="#263238" stroke-width="1.5" stroke-linecap="round" stroke-linejoin="round"/>
<path d="M210.966 126.407C210.968 127.16 210.745 127.897 210.328 128.524C209.91 129.152 209.316 129.641 208.62 129.93C207.924 130.219 207.158 130.295 206.419 130.148C205.68 130.002 205.001 129.639 204.468 129.106C203.935 128.573 203.573 127.894 203.426 127.155C203.279 126.416 203.355 125.65 203.645 124.954C203.934 124.258 204.423 123.664 205.05 123.246C205.677 122.829 206.414 122.607 207.167 122.608C208.174 122.61 209.139 123.011 209.851 123.723C210.563 124.435 210.964 125.4 210.966 126.407Z" stroke="#263238" stroke-linecap="round" stroke-linejoin="round"/>
<path d="M220.443 127.475C220.444 128.229 220.222 128.965 219.805 129.592C219.388 130.219 218.794 130.708 218.099 130.998C217.403 131.287 216.638 131.363 215.899 131.217C215.16 131.071 214.481 130.709 213.948 130.177C213.415 129.645 213.051 128.967 212.904 128.229C212.756 127.49 212.831 126.724 213.119 126.028C213.407 125.332 213.895 124.737 214.521 124.319C215.147 123.9 215.883 123.677 216.636 123.677C217.644 123.679 218.61 124.079 219.323 124.791C220.036 125.503 220.439 126.468 220.443 127.475Z" stroke="#263238" stroke-linecap="round" stroke-linejoin="round"/>
<path d="M210.966 126.407C211.238 126.315 211.53 126.297 211.811 126.356C212.093 126.415 212.353 126.548 212.565 126.742" stroke="#263238" stroke-linecap="round" stroke-linejoin="round"/>
<path d="M220.576 128.076L224.312 127.546" stroke="#263238" stroke-linecap="round" stroke-linejoin="round"/>
<path d="M62.1107 309.176C61.0775 311.371 59.8063 313.445 58.3199 315.362C56.0657 318.131 55.4963 320.104 57.9455 321.82C60.3947 323.536 64.8563 323.271 67.1027 320.502C69.3491 317.733 72.9683 310.097 72.9683 310.097C72.9683 310.097 65.0747 307.726 62.1107 309.176Z" fill="white" stroke="#263238" stroke-linecap="round" stroke-linejoin="round"/>
<path d="M89.5824 310.885C89.5824 310.885 93.4824 316.025 95.8224 318.685C98.1624 321.344 102.585 322.631 104.948 322.499C107.312 322.366 110.705 321.578 108.412 317.366C106.118 313.154 101.329 309.067 101.329 309.067C101.329 309.067 96.3216 309.067 92.8818 308.669C89.442 308.272 89.4108 310.097 89.5824 310.885Z" fill="white" stroke="#263238" stroke-linecap="round" stroke-linejoin="round"/>
<path d="M64.2635 214.071C64.2635 214.071 62.7035 232.011 63.2339 244.631C63.7643 257.252 61.4399 282.438 60.6599 288.6C59.8799 294.762 61.3697 304.933 61.4399 307.172C61.5101 309.41 61.5881 310.604 61.5881 310.604C61.5881 310.604 62.7425 309.824 66.9935 310.604C68.9126 311.014 70.8607 311.275 72.8201 311.384C74.5739 308.417 76.0242 305.281 77.1491 302.024C78.4205 297.812 77.7029 293.444 77.6015 291.221C77.5001 288.998 77.1335 286.611 77.3831 286.213C77.6327 285.815 82.8431 248.149 83.1239 239.85C83.4431 234.224 84.2786 228.639 85.6199 223.166C85.6199 223.166 88.1081 234.757 88.3031 239.234C88.4981 243.711 87.8585 280.199 88.1783 287.594C88.4981 294.988 87.9287 296.954 87.0863 298.795C86.2439 300.635 86.5481 301.556 87.1409 303.007C87.7337 304.457 89.5979 310.908 89.5979 310.908C89.5979 310.908 99.1061 311.438 100.393 310.775C101.68 310.112 102.179 309.465 102.156 309.067C102.132 308.669 106.734 299.185 106.298 295.238C105.861 291.291 105.362 291.946 104.917 284.833C104.473 277.719 107.382 217.753 107.374 214.633C107.366 211.513 106.844 217.526 87.4529 213.853C68.0621 210.179 64.8173 211.567 64.2635 214.071Z" fill="#5B7DE0" stroke="#263238" stroke-linecap="round" stroke-linejoin="round"/>
<path d="M90.144 305.76C90.144 305.76 96.2358 300.487 101.314 299.169L90.144 305.76Z" fill="white"/>
<path d="M90.144 305.76C90.144 305.76 96.2358 300.487 101.314 299.169" stroke="#263238" stroke-linecap="round" stroke-linejoin="round"/>
<path d="M65.2698 303.248C65.2698 303.248 72.8826 299.559 75.0822 298.639L65.2698 303.248Z" fill="white"/>
<path d="M65.2698 303.248C65.2698 303.248 72.8826 299.559 75.0822 298.639" stroke="#263238" stroke-linecap="round" stroke-linejoin="round"/>
<path d="M78.046 116.602C78.046 116.602 76.0024 111.992 74.4892 113.576C72.976 115.159 74.1226 117.257 76.2052 119.761C78.2878 122.265 79.9336 120.682 79.4968 119.629C79.06 118.576 78.046 116.602 78.046 116.602Z" fill="white" stroke="#263238" stroke-linecap="round" stroke-linejoin="round"/>
<path d="M97.827 114.098C97.827 114.098 99.8706 109.621 101.54 111.758C103.209 113.896 99.621 119.137 98.7396 120.058C97.8582 120.978 97.2888 113.997 97.2888 113.997L97.827 114.098Z" fill="white" stroke="#263238" stroke-linecap="round" stroke-linejoin="round"/>
<path d="M53.4605 171.795C53.4605 171.795 52.8911 179.962 52.1969 182.068C50.7798 187.031 50.1172 192.179 50.2313 197.34C50.5043 203.525 52.9301 216.965 52.9769 221.044C53.0237 225.124 51.7523 226.052 53.1173 227.105C54.4823 228.158 57.3839 231.325 58.4369 231.325C59.4899 231.325 61.0967 231.847 61.0577 231.059C61.0187 230.272 60.504 230.396 60.0594 229.343C59.4918 227.808 59.0279 226.237 58.6709 224.64C58.9913 223.477 59.3794 222.334 59.8331 221.216C59.8331 221.216 60.7691 224.507 60.9486 225.568C61.1279 226.629 62.5943 227.011 62.5085 225.038C62.4227 223.064 62.3837 222.269 62.2901 220.163C62.1965 218.057 60.5351 216.216 59.8331 215.155C59.1311 214.094 58.5773 213.447 58.554 213.049C58.5306 212.651 60.8238 198.697 60.894 193.822C60.9642 188.947 61.0343 184.993 61.3853 184.072C61.7363 183.152 63.4836 174.853 63.4836 174.853L53.4605 171.795Z" fill="white" stroke="#263238" stroke-linecap="round" stroke-linejoin="round"/>
<path d="M118.606 172.185C118.606 172.185 119.168 180.398 119.87 182.567C121.27 187.595 121.93 192.8 121.828 198.019C121.555 204.188 119.113 217.409 119.066 221.489C119.02 225.568 120.299 226.598 118.934 227.534C117.569 228.47 114.659 231.371 113.606 231.286C112.553 231.2 110.954 231.574 110.986 230.786C111.017 229.999 111.539 230.178 111.984 229.164C112.56 227.661 113.027 226.117 113.38 224.546C113.057 223.347 112.667 222.168 112.21 221.013C112.21 221.013 111.274 224.227 111.095 225.264C110.915 226.301 109.457 226.567 109.535 224.601C109.613 222.635 109.652 221.848 109.745 219.749C109.839 217.651 111.5 215.951 112.21 214.96C112.92 213.97 113.466 213.353 113.489 212.963C113.513 212.573 111.22 198.409 111.149 193.526C111.079 188.643 111.017 184.688 110.658 183.737C110.299 182.785 108.56 174.33 108.56 174.33L118.606 172.185Z" fill="white" stroke="#263238" stroke-linecap="round" stroke-linejoin="round"/>
<path d="M82.2659 131.75C82.2659 131.75 74.7779 135.307 70.2539 137.28C65.7299 139.253 60.0437 141.625 60.1139 142.553C60.1841 143.481 55.2935 161.912 53.7491 165.734C52.2047 169.556 50.7617 172.583 50.7617 172.583C50.7617 172.583 56.2919 176.28 59.8799 177.06C62.1923 177.55 64.5395 177.857 66.8999 177.98L62.6333 215.92C62.6333 215.92 71.2133 219.344 84.6527 219.476C92.9916 219.538 101.327 219.098 109.613 218.158C109.613 218.158 110.876 186.958 110.744 183.908C110.652 182.237 110.712 180.561 110.923 178.901C112.97 179.347 115.098 179.259 117.101 178.643C118.862 177.988 120.589 177.241 122.272 176.405C122.272 176.405 115.728 150.322 114.652 146.765C113.575 143.208 114.074 142.685 113.138 142.288C112.202 141.89 101.86 137.413 98.4821 135.439C95.1047 133.466 93.8021 133.458 90.8459 132.538C87.8897 131.617 83.7869 130.432 82.2659 131.75Z" fill="#5B7DE0" stroke="#263238" stroke-linecap="round" stroke-linejoin="round"/>
<path d="M110.939 178.901L109.27 155.509" stroke="#263238" stroke-linecap="round" stroke-linejoin="round"/>
<path d="M67.2119 191.155L81.8213 190.757C81.8213 190.757 81.1739 209.071 80.7293 211.037C80.2847 213.002 77.3207 214.328 73.4909 214.196C69.6611 214.063 67.3445 212.222 66.9077 211.302" stroke="#263238" stroke-linecap="round" stroke-linejoin="round"/>
<path d="M66.3931 193.526L81.7981 193.393" stroke="#263238" stroke-linecap="round" stroke-linejoin="round"/>
<path d="M106.953 214.204C105.518 214.601 102.093 214.601 101.345 212.495C100.596 210.389 101.087 191.552 101.087 191.552L108.606 191.81" stroke="#263238" stroke-linecap="round" stroke-linejoin="round"/>
<path d="M101.025 193.128L108.178 194.181" stroke="#263238" stroke-linecap="round" stroke-linejoin="round"/>
<path d="M66.8999 177.98C66.8999 177.98 67.4303 159.939 67.2197 155.197" stroke="#263238" stroke-linecap="round" stroke-linejoin="round"/>
<path d="M80.0352 122.92C80.0352 122.92 81.174 133.84 81.2208 135.041C81.2676 136.243 82.6014 139.519 83.865 141.235C85.1286 142.951 88.662 148.481 90.066 147.42C91.47 146.359 95.4246 140.439 95.8068 137.147C96.189 133.856 96.3762 126.087 96.3762 126.087C96.3762 126.087 91.2516 126.352 87.3672 125.034C83.4828 123.716 80.0352 122.92 80.0352 122.92Z" fill="white" stroke="#263238" stroke-linecap="round" stroke-linejoin="round"/>
<path d="M74.5752 106.587L77.4846 115.814C77.4846 115.814 78.5766 122.663 80.5422 125.424C82.5078 128.185 89.3952 132.148 92.523 131.352C95.6508 130.556 99.3402 127.663 99.1998 124.504C99.0594 121.345 98.4198 112.125 98.5056 108.568C98.5914 105.011 97.7256 97.7652 95.5728 95.7918C93.42 93.8184 86.2128 92.625 81.0414 94.7388C75.87 96.8526 72.36 100.792 74.5752 106.587Z" fill="#263238" stroke="#263238" stroke-linecap="round" stroke-linejoin="round"/>
<path d="M77.6482 116.602C77.6482 116.602 77.3908 116.735 78.0694 114.098C78.748 111.462 80.7916 110.144 80.9944 108.833C81.1972 107.523 78.4204 107.117 78.7246 105.144C79.0288 103.171 81.7432 101.72 87.5074 101.057C93.2716 100.394 97.1092 103.826 96.922 105.534C96.7348 107.242 96.22 107.515 97.0624 108.701C97.9048 109.886 98.2636 112.125 98.326 113.443C98.3884 114.761 99.106 119.496 97.858 120.947C96.61 122.398 95.674 122.132 94.4338 120.947C93.1936 119.761 92.7334 118.186 89.9722 118.186C87.211 118.186 86.3296 119.239 85.846 120.292C85.3624 121.345 84.8944 122.632 83.3188 122.632C81.7432 122.632 80.62 121.181 79.4968 119.597C78.8124 118.643 78.1947 117.642 77.6482 116.602Z" fill="white" stroke="#263238" stroke-linecap="round" stroke-linejoin="round"/>
<path d="M89.5198 110.144C89.5198 110.144 92.0704 117.257 91.9612 117.788C91.852 118.318 90.604 119.894 89.1454 119.761C87.6868 119.629 86.9614 117.92 86.9614 117.92" stroke="#263238" stroke-linecap="round" stroke-linejoin="round"/>
<path d="M90.2375 109.2C90.1678 108.962 90.1528 108.711 90.1936 108.466C90.2344 108.222 90.3301 107.989 90.4733 107.787C90.6166 107.584 90.8038 107.417 91.021 107.297C91.2381 107.177 91.4796 107.108 91.7273 107.094C92.5424 107.054 93.3566 107.187 94.1172 107.482C94.8778 107.778 95.5677 108.23 96.1421 108.81" stroke="#263238" stroke-width="2" stroke-linecap="round" stroke-linejoin="round"/>
<path d="M86.3999 108.42C86.0235 108.14 85.5896 107.947 85.1297 107.856C84.6697 107.764 84.1951 107.776 83.7401 107.89C82.1801 108.287 80.3003 110.659 80.3237 111.056" stroke="#263238" stroke-width="2" stroke-linecap="round" stroke-linejoin="round"/>
<path d="M85.8929 112.258C85.8929 112.913 85.6199 113.443 85.2143 113.443C84.8087 113.443 84.4343 112.913 84.4343 112.258C84.4343 111.602 84.7073 111.072 85.1051 111.072C85.5029 111.072 85.8617 111.602 85.8929 112.258Z" fill="#263238"/>
<path d="M93.5135 111.86C93.5135 112.515 93.2405 113.045 92.8427 113.045C92.4449 113.045 92.0627 112.515 92.0627 111.86C92.0627 111.205 92.3357 110.674 92.7335 110.674C93.1313 110.674 93.4823 111.205 93.5135 111.86Z" fill="#263238"/>
<path d="M86.7432 122.663C86.7432 122.663 89.2938 123.848 93.1704 122.132" stroke="white" stroke-width="2" stroke-linecap="round" stroke-linejoin="round"/>
<path d="M77.3599 134.16C77.3599 134.16 81.2599 147.592 85.4485 156.421C89.6371 165.251 92.9599 171.436 92.9599 171.436C92.9599 171.436 99.2701 150.228 99.2389 143.356C99.2077 136.484 99.1687 135.72 99.1687 135.72" stroke="#263238" stroke-linecap="round" stroke-linejoin="round"/>
<path d="M97.6319 184.829H89.5901L89.0051 171.397H97.0391L97.6319 184.829Z" fill="white" stroke="#263238" stroke-linecap="round" stroke-linejoin="round"/>
<path d="M156.709 314.972C156.709 314.972 160.921 318.396 163.948 319.316C166.974 320.237 168.557 320.767 167.902 322.218C167.247 323.669 165.133 324.191 158.948 324.324C152.762 324.457 151.569 323.138 149.198 322.475C146.827 321.812 143.535 322.475 142.482 321.165C141.429 319.855 141.819 317.866 141.819 315.76C141.819 313.654 150.914 312.733 153.285 313.521C154.475 313.88 155.623 314.367 156.709 314.972Z" fill="white" stroke="#263238" stroke-linecap="round" stroke-linejoin="round"/>
<path d="M144.721 317.608C144.721 317.608 148.675 321.82 151.967 323.661C155.258 325.502 157.099 326.828 156.311 327.748C155.524 328.669 153.02 329.854 146.429 329.199C139.838 328.544 138.527 327.085 135.368 324.847C132.209 322.608 130.759 322.873 129.706 321.688C128.653 320.502 128.653 317.866 128.653 317.866L144.721 317.608Z" fill="white" stroke="#263238" stroke-linecap="round" stroke-linejoin="round"/>
<path d="M164.478 220.132C164.478 220.132 162.138 251.48 161.186 257.143C160.235 262.805 159.338 265.972 159.47 269.919C159.603 273.866 160.788 285.199 158.417 291.923C156.046 298.646 156.077 306.805 156.311 309.176C156.545 311.548 157.364 314.707 157.232 315.237C157.099 315.767 153.285 317.866 150.516 318.396C148.776 318.716 147.012 318.891 145.243 318.919C142.563 319.865 139.78 320.485 136.952 320.767C132.997 321.032 127.592 319.847 127.592 319.847C127.592 319.847 127.592 310.097 127.061 303.771C126.531 297.445 124.721 287.313 126.929 279.669C129.136 272.025 128.645 267.969 128.489 265.442C128.333 262.915 128.489 251.612 128.356 251.215C128.223 250.817 127.436 217.893 127.436 217.893C127.436 217.893 141.788 219.999 151.405 219.079C161.022 218.158 163.526 218.158 163.526 218.158C163.526 218.158 165.663 215.787 164.478 220.132Z" fill="#263238" stroke="#263238" stroke-linecap="round" stroke-linejoin="round"/>
<path d="M145.906 317.078C145.899 314.946 145.637 312.822 145.126 310.752C144.346 308.123 144.198 298.771 144.596 294.949C144.994 291.127 146.936 281.518 146.936 276.112C146.936 270.707 147.466 262.415 147.466 262.415" stroke="white" stroke-linecap="round" stroke-linejoin="round"/>
<path d="M173.167 259.514L158.16 259.381C157.505 259.381 157.505 249.374 157.505 249.374L173.167 259.514Z" fill="white" stroke="#263238" stroke-linecap="round" stroke-linejoin="round"/>
<path d="M141.429 221.98C141.429 221.98 156.444 222.901 164.876 221.45L161.974 150.587C161.974 150.587 160.001 147.295 154.728 145.447C149.455 143.598 143.137 146.227 140.899 148.738C138.66 151.25 140.243 221.715 140.243 221.715L141.429 221.98Z" fill="#5B7DE0" stroke="#263238" stroke-linecap="round" stroke-linejoin="round"/>
<path d="M142.084 145.447C142.084 145.447 127.202 152.958 124.963 154.276C122.724 155.594 122.623 160.329 122.623 162.575C122.623 164.822 123.278 264.521 123.278 264.521C128.911 264.889 134.567 264.312 140.009 262.813C145.377 261.409 150.428 258.994 154.892 255.7L152.388 202.09L149.58 155.064C149.58 155.064 147.879 142.022 142.084 145.447Z" fill="white" stroke="#263238" stroke-linecap="round" stroke-linejoin="round"/>
<path d="M146.561 140.572C146.561 140.572 143.137 140.969 141.686 142.912C140.836 144.057 140.212 145.354 139.846 146.734L138.527 158.59L143.005 157.537L140.766 162.802C140.766 162.802 143.005 169.393 145.508 174.923C148.012 180.453 151.702 191.779 151.702 191.779L149.986 156.351C149.986 156.351 149.986 146.078 149.206 143.871C148.426 141.664 147.614 140.572 146.561 140.572Z" fill="white" stroke="#263238" stroke-linecap="round" stroke-linejoin="round"/>
<path d="M155.126 147.818L157.762 255.169L173.167 259.514L170.928 177.723C170.928 177.723 171.326 156.663 170.008 153.746C168.69 150.829 156.842 144.924 155.656 145.08C154.47 145.236 155.126 147.818 155.126 147.818Z" fill="white" stroke="#263238" stroke-linecap="round" stroke-linejoin="round"/>
<path d="M155.126 142.42C156.085 142.654 156.982 143.093 157.755 143.707C158.528 144.321 159.158 145.096 159.603 145.977C160.921 148.871 164.345 157.833 164.345 157.833L160.001 158.356L164.61 161.647L156.444 192.34L155.523 159.12L154.743 145.423C154.743 145.423 153.807 143.208 155.126 142.42Z" fill="white" stroke="#263238" stroke-linecap="round" stroke-linejoin="round"/>
<path d="M145.508 136.094C145.508 136.094 146.039 139.916 145.243 142.022C144.447 144.128 147.747 150.719 149.065 154.799C150.383 158.878 151.701 162.178 152.489 161.78C153.277 161.382 156.046 145.977 155.913 143.996C155.781 142.015 157.099 136.094 157.099 136.094C157.099 136.094 149.853 138.2 145.508 136.094Z" fill="white" stroke="#263238" stroke-linecap="round" stroke-linejoin="round"/>
<path d="M136.257 132.077C140.406 132.077 143.769 128.564 143.769 124.231C143.769 119.897 140.406 116.384 136.257 116.384C132.109 116.384 128.746 119.897 128.746 124.231C128.746 128.564 132.109 132.077 136.257 132.077Z" fill="#263238" stroke="#263238" stroke-linecap="round" stroke-linejoin="round"/>
<path d="M140.111 127.92C140.111 127.92 138.793 124.496 137.209 125.814C135.626 127.132 137.209 130.026 138.395 131.742C139.58 133.458 141.819 132.662 141.562 130.962C141.349 129.84 140.849 128.792 140.111 127.92Z" fill="white" stroke="#263238" stroke-linecap="round" stroke-linejoin="round"/>
<path d="M160.5 125.791C160.5 125.791 161.163 122.499 162.06 124.738C162.457 125.615 162.64 126.573 162.594 127.535C162.548 128.496 162.274 129.433 161.795 130.268C161.015 131.586 161.14 131.453 160.874 130.268C160.667 128.783 160.542 127.289 160.5 125.791Z" fill="white" stroke="#263238" stroke-linecap="round" stroke-linejoin="round"/>
<path d="M138.262 121.579C138.262 121.579 140.766 133.692 142.349 136.594C143.933 139.495 149.198 144.394 153.94 142.389C158.683 140.384 161.319 136.726 161.319 132.249C161.319 127.772 161.974 122.109 161.186 117.226C160.789 115.003 159.644 112.982 157.943 111.497C156.241 110.012 154.083 109.152 151.826 109.06C147.607 108.927 141.023 111.298 139.705 115.518C139.022 117.485 138.538 119.515 138.262 121.579Z" fill="white" stroke="#263238" stroke-linecap="round" stroke-linejoin="round"/>
<path d="M138.395 126.056C138.395 126.056 145.773 123.154 150.516 119.597C155.258 116.041 156.709 113.412 156.709 113.412C156.709 113.412 158.948 119.465 159.868 121.446C160.788 123.427 161.576 125.658 161.576 125.658C161.576 125.658 163.027 123.154 163.027 117.858C163.027 112.562 161.576 108.373 156.007 105.604C150.438 102.835 141.39 104.551 137.287 108.506C133.184 112.46 133.995 118.911 135.048 121.415C135.873 123.152 137.007 124.725 138.395 126.056Z" fill="#263238" stroke="#263238" stroke-linecap="round" stroke-linejoin="round"/>
<path d="M154.728 121.181C154.728 121.181 153.948 121.313 153.948 123.685C153.948 126.056 154.728 130.003 154.603 130.533C154.478 131.063 153.043 132.639 152.107 131.719" stroke="#263238" stroke-linecap="round" stroke-linejoin="round"/>
<path d="M148.8 134.09C148.8 134.09 152.224 135.541 156.6 132.904" stroke="#263238" stroke-linecap="round" stroke-linejoin="round"/>
<path d="M155.258 120.9C155.258 120.9 158.035 119.839 159.868 121.43" stroke="#263238" stroke-linecap="round" stroke-linejoin="round"/>
<path d="M150.649 121.446C149.443 121.088 148.17 121.021 146.933 121.25C145.697 121.479 144.532 121.998 143.535 122.764" stroke="#263238" stroke-linecap="round" stroke-linejoin="round"/>
<path d="M148.8 125.26C148.8 126.04 148.48 126.711 148.082 126.711C147.685 126.711 147.357 126.064 147.357 125.26C147.357 124.457 147.677 123.817 148.082 123.817C148.488 123.817 148.8 124.465 148.8 125.26Z" fill="#263238"/>
<path d="M157.38 124.738C157.38 125.518 157.052 126.188 156.655 126.188C156.257 126.188 155.929 125.541 155.929 124.738C155.929 123.934 156.257 123.287 156.655 123.287C157.052 123.287 157.38 123.934 157.38 124.738Z" fill="#263238"/>
<path d="M165.796 178.113L163.456 174.291C162.793 173.238 159.767 173.636 158.316 173.636C157.562 173.714 156.837 173.966 156.196 174.372C155.556 174.778 155.019 175.327 154.627 175.976C154.104 177.029 151.733 178.745 152.653 179.798C153.574 180.851 156.077 180.188 156.475 180.453C156.873 180.718 160.165 182.957 161.35 183.355C161.981 183.586 162.655 183.674 163.324 183.612L165.796 178.113Z" stroke="#263238" stroke-linecap="round" stroke-linejoin="round"/>
<path d="M169.353 152.958C170.678 153.569 171.863 154.445 172.837 155.532C173.811 156.618 174.552 157.892 175.016 159.276C176.467 163.886 181.334 194.579 180.281 197.496C179.228 200.413 176.599 202.628 171.989 201.053C167.38 199.477 160.289 191.958 160.289 191.958L165.82 178.129L170.164 180.367L169.244 167.989" fill="white"/>
<path d="M169.353 152.958C170.678 153.569 171.863 154.445 172.837 155.532C173.811 156.618 174.552 157.892 175.016 159.276C176.467 163.886 181.334 194.579 180.281 197.496C179.228 200.413 176.599 202.628 171.989 201.053C167.38 199.477 160.289 191.958 160.289 191.958L165.82 178.129L170.164 180.367L169.244 167.989" stroke="#263238" stroke-linecap="round" stroke-linejoin="round"/>
<path d="M170.141 180.352C170.141 180.352 177.122 184.439 177.785 185.89" stroke="#263238" stroke-linecap="round" stroke-linejoin="round"/>
<path d="M161.311 161.912H135.891V197.48H161.311V161.912Z" fill="#263238" stroke="#263238" stroke-linecap="round" stroke-linejoin="round"/>
<path d="M147.357 186.677C147.357 186.677 152.224 184.041 153.675 182.59C155.126 181.139 155.391 181.03 156.179 181.03C158.117 181.03 160.054 180.897 161.974 180.632C162.754 180.367 162.372 182.192 161.974 182.606C161.576 183.019 159.08 183.534 159.08 183.534C159.08 183.534 163.292 183.136 163.425 184.454C163.519 184.832 163.507 185.229 163.39 185.601C163.273 185.972 163.056 186.305 162.762 186.56L162.372 186.958C162.372 186.958 162.762 189.719 162.372 191.038C161.982 192.356 161.186 192.754 159.47 193.011C157.18 193.157 154.881 193.026 152.622 192.621C151.304 192.356 146.827 193.276 146.827 193.276L147.357 186.677Z" fill="white" stroke="#263238" stroke-linecap="round" stroke-linejoin="round"/>
<path d="M129.838 151.905C129.838 151.905 122.038 153.613 120.743 154.401C119.449 155.189 115.081 186.545 114.16 191.841C113.24 197.137 122.327 198.167 125.08 199.22C127.834 200.273 148.02 201.825 148.02 201.825L148.285 185.492L134.323 181.935L134.191 159.409" fill="white"/>
<path d="M129.838 151.905C129.838 151.905 122.038 153.613 120.743 154.401C119.449 155.189 115.081 186.545 114.16 191.841C113.24 197.137 122.327 198.167 125.08 199.22C127.834 200.273 148.02 201.825 148.02 201.825L148.285 185.492L134.323 181.935L134.191 159.409" stroke="#263238" stroke-linecap="round" stroke-linejoin="round"/>
<path d="M134.315 181.935C134.315 181.935 129.44 179.696 126.281 180.882C123.122 182.068 120.486 188.128 120.486 188.128" stroke="#263238" stroke-linecap="round" stroke-linejoin="round"/>
<path d="M128.91 180.352C128.91 180.352 124.3 180.086 122.061 181.015C120.685 181.597 119.466 182.498 118.505 183.643" stroke="#263238" stroke-linecap="round" stroke-linejoin="round"/>
<path d="M153.94 160.727H144.986V163.628H153.94V160.727Z" fill="white" stroke="#263238" stroke-linecap="round" stroke-linejoin="round"/>
</svg>
