<svg width="354" height="354" viewBox="0 0 354 354" fill="none" xmlns="http://www.w3.org/2000/svg">
<g opacity="0.3">
<path d="M127.086 22.1604H23.449V327.393H127.086V22.1604Z" stroke="black" stroke-linecap="round" stroke-linejoin="round"/>
<path d="M113.938 156.44H77.6534V191.295H113.938V156.44Z" stroke="black" stroke-linecap="round" stroke-linejoin="round"/>
<path d="M113.938 77.7596H77.6534V112.614H113.938V77.7596Z" stroke="black" stroke-linecap="round" stroke-linejoin="round"/>
<path d="M113.938 195.776H77.6534V230.631H113.938V195.776Z" stroke="black" stroke-linecap="round" stroke-linejoin="round"/>
<path d="M113.938 38.055H77.6534V73.2851H113.938V38.055Z" stroke="black" stroke-linecap="round" stroke-linejoin="round"/>
<path d="M72.8886 38.055H36.6036V73.2851H72.8886V38.055Z" stroke="black" stroke-linecap="round" stroke-linejoin="round"/>
<path d="M113.938 117.096H77.6534V151.951H113.938V117.096Z" stroke="black" stroke-linecap="round" stroke-linejoin="round"/>
<path d="M72.8886 117.096H36.6036V151.951H72.8886V117.096Z" stroke="black" stroke-linecap="round" stroke-linejoin="round"/>
<path d="M113.938 235.113H77.6534V264.778H113.938V235.113Z" stroke="black" stroke-linecap="round" stroke-linejoin="round"/>
<path d="M72.8886 195.776H36.6036V230.631H72.8886V195.776Z" stroke="black" stroke-linecap="round" stroke-linejoin="round"/>
<path d="M72.8886 235.113H36.6036V264.778H72.8886V235.113Z" stroke="black" stroke-linecap="round" stroke-linejoin="round"/>
<path d="M72.8886 156.44H36.6036V191.295H72.8886V156.44Z" stroke="black" stroke-linecap="round" stroke-linejoin="round"/>
<path d="M72.8886 77.7596H36.6036V112.614H72.8886V77.7596Z" stroke="black" stroke-linecap="round" stroke-linejoin="round"/>
<path d="M28.9502 22.6914V327.16" stroke="black" stroke-linecap="round" stroke-linejoin="round"/>
<path d="M230.73 22.1604H127.093V327.393H230.73V22.1604Z" stroke="black" stroke-linecap="round" stroke-linejoin="round"/>
<path d="M176.525 156.44H140.24V191.295H176.525V156.44Z" stroke="black" stroke-linecap="round" stroke-linejoin="round"/>
<path d="M176.525 77.7596H140.24V112.614H176.525V77.7596Z" stroke="black" stroke-linecap="round" stroke-linejoin="round"/>
<path d="M176.525 195.776H140.24V230.631H176.525V195.776Z" stroke="black" stroke-linecap="round" stroke-linejoin="round"/>
<path d="M176.525 38.055H140.24V73.2851H176.525V38.055Z" stroke="black" stroke-linecap="round" stroke-linejoin="round"/>
<path d="M217.582 38.055H181.297V73.2851H217.582V38.055Z" stroke="black" stroke-linecap="round" stroke-linejoin="round"/>
<path d="M176.525 117.096H140.24V151.951H176.525V117.096Z" stroke="black" stroke-linecap="round" stroke-linejoin="round"/>
<path d="M217.582 117.096H181.297V151.951H217.582V117.096Z" stroke="black" stroke-linecap="round" stroke-linejoin="round"/>
<path d="M176.525 235.113H140.24V264.778H176.525V235.113Z" stroke="black" stroke-linecap="round" stroke-linejoin="round"/>
<path d="M217.582 195.776H181.297V230.631H217.582V195.776Z" stroke="black" stroke-linecap="round" stroke-linejoin="round"/>
<path d="M217.582 235.113H181.297V264.778H217.582V235.113Z" stroke="black" stroke-linecap="round" stroke-linejoin="round"/>
<path d="M217.582 156.44H181.297V191.295H217.582V156.44Z" stroke="black" stroke-linecap="round" stroke-linejoin="round"/>
<path d="M217.582 77.7596H181.297V112.614H217.582V77.7596Z" stroke="black" stroke-linecap="round" stroke-linejoin="round"/>
<path d="M225.229 22.6914V327.16" stroke="black" stroke-linecap="round" stroke-linejoin="round"/>
</g>
<path d="M305.332 297.325H277.55L280.333 327.004H302.55L305.332 297.325Z" fill="#263238" stroke="#263238" stroke-miterlimit="10"/>
<path d="M291.951 302.366C291.951 302.366 303.775 257.613 318.027 225.427" stroke="#263238" stroke-linecap="round" stroke-linejoin="round"/>
<path d="M314.713 232.769C314.713 232.769 313.141 220.606 316.901 215.253C320.66 209.901 325.015 207.911 325.015 207.911C325.015 207.911 325.942 221.625 324.37 226.071C322.799 230.518 314.713 232.762 314.713 232.762V232.769Z" fill="#5B7DE0"/>
<path d="M314.479 233.562C314.479 233.562 311.392 232.259 310.366 225.349C309.339 218.432 311.789 207.699 311.789 207.699C311.789 207.699 314.968 215.975 315.902 221.385C316.837 226.794 314.479 233.562 314.479 233.562Z" fill="#5B7DE0"/>
<path d="M314.479 233.562C314.479 233.562 319.018 225.894 324.703 224.188C330.395 222.482 339.529 221.866 339.529 221.866C339.529 221.866 336.406 228.309 328.717 230.9C321.029 233.498 314.479 233.562 314.479 233.562Z" fill="#5B7DE0"/>
<path d="M307.782 250.816C307.782 250.816 309.198 249.591 306.182 243.75C303.166 237.916 299.441 235.523 299.441 235.523C299.441 235.523 297.601 244.331 300.305 248.303C303.01 252.275 305.24 254.767 305.24 254.767C305.24 254.767 296.992 251.928 295.668 251.637C294.337 251.347 288.666 250.604 288.666 250.604C288.666 250.604 288.085 253.096 293.523 255.935C298.96 258.774 304.95 258.746 304.95 258.746C304.95 258.746 305.934 259.432 308.1 260.983C310.267 262.533 316.433 265.139 316.433 265.139C316.433 265.139 316.979 262.08 314.826 260.721C312.674 259.355 310.932 258.533 310.932 258.533C310.932 258.533 316.363 258.54 317.446 257.903C318.529 257.266 323.889 253.506 323.889 253.506C323.889 253.506 318.472 253.683 317.163 253.775C315.86 253.86 311.449 255.107 311.449 255.107C311.449 255.107 318.607 252.926 320.214 249.039C321.821 245.152 321.913 240.996 321.913 240.996C321.913 240.996 312.759 244.069 307.782 250.823V250.816Z" fill="#5B7DE0"/>
<path d="M301.87 268.58C301.87 268.58 309.799 266.725 313.269 268.183C316.738 269.642 321.149 276.708 321.149 276.708C321.149 276.708 314.94 279.016 309.927 276.899C304.914 274.782 301.87 268.573 301.87 268.573V268.58Z" fill="#5B7DE0"/>
<path d="M301.87 268.58C301.87 268.58 298.394 264.282 293.685 263.85C288.977 263.411 285.494 264.594 285.494 264.594C285.494 264.594 285.359 268.19 291.484 270.038C297.601 271.886 301.87 268.58 301.87 268.58Z" fill="#5B7DE0"/>
<path d="M299.463 277.232C299.463 277.232 303.413 277.529 305.615 279.646C307.817 281.763 311.35 292.468 311.35 292.468C311.35 292.468 304.263 290.117 299.909 286.634C295.555 283.15 299.456 277.224 299.456 277.224L299.463 277.232Z" fill="#5B7DE0"/>
<path d="M299.463 277.232C299.463 277.232 294.535 273.599 291.059 274.782C287.582 275.964 285.968 279.844 285.989 282.867C286.004 285.883 285.975 288.156 285.975 288.156C285.975 288.156 291.838 286.251 293.438 285.005C295.038 283.766 299.463 277.239 299.463 277.239V277.232Z" fill="#5B7DE0"/>
<path d="M287.901 306.585C287.901 306.585 281.912 253.754 271.015 229.243" stroke="#263238" stroke-miterlimit="10"/>
<path d="M270.074 226.907C270.074 226.907 268.02 224.436 270.484 218.269C272.955 212.103 275.419 208.605 275.419 208.605C275.419 208.605 278.916 215.395 279.122 219.501C279.327 223.615 274.803 228.549 274.803 228.549C274.803 228.549 276.446 226.907 279.532 226.284C282.619 225.668 286.938 226.079 286.938 226.079C286.938 226.079 285.09 229.371 283.03 230.397C280.977 231.424 275.214 232.663 274.392 232.451C273.571 232.245 273.982 232.861 270.074 236.564C266.165 240.267 263.702 242.115 263.702 242.115C263.702 242.115 262.264 235.53 263.496 232.245C264.728 228.953 270.081 226.9 270.081 226.9L270.074 226.907Z" fill="#5B7DE0"/>
<path d="M272.332 227.112C272.332 227.112 270.484 224.436 268.835 222.999C267.192 221.561 264.105 221.151 262.873 220.946C261.641 220.74 261.436 225.059 263.694 227.941C265.953 230.822 274.385 232.465 274.385 232.465L272.332 227.119V227.112Z" fill="#5B7DE0"/>
<path d="M275.214 240.685C275.214 240.685 273.571 238.837 278.095 235.75C282.619 232.663 286.733 232.458 286.733 232.458C286.733 232.458 285.501 240.274 283.441 242.532C281.38 244.791 277.89 244.38 277.89 244.38C277.89 244.38 282.825 244.586 284.885 245.612C286.938 246.639 291.675 253.223 291.675 253.223C291.675 253.223 291.675 253.429 287.151 253.429C282.626 253.429 278.924 249.726 278.924 249.726C278.924 249.726 279.745 252.197 279.95 254.045C280.156 255.892 276.247 260.417 275.837 261.04C275.426 261.656 271.929 256.515 271.518 254.25C271.107 251.984 271.518 250.342 271.518 250.342C271.518 250.342 270.081 250.958 268.226 253.223C266.378 255.489 265.139 258.979 265.139 258.979C265.139 258.979 261.025 252.395 262.052 248.289C263.079 244.175 272.127 244.38 272.127 244.38C272.127 244.38 267.808 243.764 265.755 242.943C263.702 242.122 261.847 240.267 261.847 239.24C261.847 238.214 262.873 237.803 267.192 238.214C271.511 238.624 275.214 240.685 275.214 240.685Z" fill="#5B7DE0"/>
<path d="M281.175 263.51C281.175 263.51 275.214 259.808 272.127 260.218C269.04 260.629 266.371 261.656 265.337 261.656C264.303 261.656 267.39 268.028 271.093 268.24C274.796 268.445 281.373 266.803 281.373 266.803C281.373 266.803 277.67 269.068 276.233 271.532C274.796 274.003 274.18 278.732 274.18 278.732C274.18 278.732 279.525 278.938 281.791 276.885C284.057 274.831 283.228 267.22 283.228 267.22C283.228 267.22 284.46 266.194 286.315 265.988C288.163 265.783 291.618 267.659 291.618 267.659C291.618 267.659 295.979 261.67 288.786 258.377C281.586 255.085 281.175 263.518 281.175 263.518V263.51Z" fill="#5B7DE0"/>
<path d="M284.467 283.667C284.467 283.667 280.354 281.402 277.883 283.462C275.412 285.515 272.127 292.51 272.127 292.51C272.127 292.51 277.062 293.331 280.354 291.484C283.646 289.636 284.467 283.667 284.467 283.667Z" fill="#5B7DE0"/>
<path d="M284.467 283.667C284.467 283.667 285.289 280.17 289.402 279.143C293.516 278.117 299.477 281.819 299.477 281.819C299.477 281.819 297.629 283.667 292.892 285.112C288.163 286.549 284.46 283.674 284.46 283.674L284.467 283.667Z" fill="#5B7DE0"/>
<path d="M271.716 296.404H267.355V326.515H271.716V296.404Z" fill="white" stroke="#263238" stroke-linecap="round" stroke-linejoin="round"/>
<path d="M313.665 296.404H309.304V326.515H313.665V296.404Z" fill="white" stroke="#263238" stroke-linecap="round" stroke-linejoin="round"/>
<path d="M315.549 295.71H266.215V301.92H315.549V295.71Z" fill="white" stroke="#263238" stroke-linecap="round" stroke-linejoin="round"/>
<path d="M315.549 304.199H266.215V310.408H315.549V304.199Z" fill="white" stroke="#263238" stroke-linecap="round" stroke-linejoin="round"/>
<path d="M315.549 312.695H266.215V318.904H315.549V312.695Z" fill="white" stroke="#263238" stroke-linecap="round" stroke-linejoin="round"/>
<path d="M315.549 321.191H266.215V327.4H315.549V321.191Z" fill="white" stroke="#263238" stroke-linecap="round" stroke-linejoin="round"/>
<g opacity="0.3">
<path d="M335.507 22.0684H250.972V134.605H335.507V22.0684Z" stroke="black" stroke-linecap="round" stroke-linejoin="round"/>
<path d="M332.746 25.7358H253.726V130.93H332.746V25.7358Z" stroke="black" stroke-linecap="round" stroke-linejoin="round"/>
<path d="M253.726 102.993C262.583 98.4049 281.735 86.1778 286.967 64.1377C291.101 46.728 297.091 34.0123 306.238 25.7429" stroke="black" stroke-linecap="round" stroke-linejoin="round"/>
<path d="M292.17 130.938C286.712 113.223 279.858 78.857 298.988 56.0382C311.06 41.6375 323.138 33.3397 332.753 28.5678" stroke="black" stroke-linecap="round" stroke-linejoin="round"/>
<path d="M258.979 25.7429C262.654 30.3236 266.633 38.2532 265.373 50.3954C264.027 63.4014 258.13 70.7504 253.726 74.5241" stroke="black" stroke-linecap="round" stroke-linejoin="round"/>
<path d="M323.195 130.938C317.014 121.528 307.322 122.944 300.709 114.193C292.369 103.156 300.461 86.7158 319.598 79.0978C325.581 76.7189 329.794 73.2851 332.753 69.6884" stroke="black" stroke-linecap="round" stroke-linejoin="round"/>
<path d="M253.726 124.204C259.525 115.354 266.796 107 271.256 111.991C274.973 116.147 275.865 123.773 275.709 130.945" stroke="black" stroke-linecap="round" stroke-linejoin="round"/>
<path d="M273.741 25.7429C273.939 35.9876 275.178 54.9974 281.565 46.9616C286.018 41.3684 289.544 32.7521 291.908 25.7429" stroke="black" stroke-linecap="round" stroke-linejoin="round"/>
<path d="M332.753 40.6321C322.367 49.5883 304.313 66.2405 316.412 63.8899C322.855 62.6368 328.399 58.672 332.753 54.3036" stroke="black" stroke-linecap="round" stroke-linejoin="round"/>
</g>
<path d="M168.37 68.3645C168.37 68.3645 166.847 62.1695 157.035 61.8226C147.222 61.4686 147.108 65.313 144.517 66.5378C143.193 67.1609 140.418 70.8212 140.708 72.7895L146.4 70.1203C146.4 70.1203 133.423 77.9791 133.069 90.9497C132.715 103.92 137.982 114.646 148.503 114.646C159.024 114.646 163.697 111.489 163.576 103.899C163.463 96.3022 161.941 83.2183 164.277 75.7348C166.614 68.2583 168.37 68.3716 168.37 68.3716V68.3645Z" fill="#263238" stroke="#263238" stroke-miterlimit="10"/>
<path d="M199.5 154.988L203.345 162.536C203.345 162.536 209.115 167.711 210.595 171.265C212.074 174.812 217.802 184.484 219.912 185.17C220.613 185.397 223.608 185.907 224.649 186.204C225.682 186.501 226.723 187.535 227.459 187.684C228.196 187.832 229.534 188.13 230.419 187.684C231.304 187.238 232.196 187.981 231.898 188.866C231.601 189.751 228.493 190.346 228.493 190.346L224.054 189.461C224.054 189.461 227.75 191.974 227.162 193.305C226.567 194.636 218.135 195.967 217.399 195.967C216.662 195.967 215.664 194.934 213.299 193.164C210.935 191.387 210.326 187.662 210.326 187.662C210.326 187.662 196.987 175.704 194.764 172.745C192.548 169.785 189.879 162.982 189.879 162.536C189.879 162.09 188.696 158.84 188.696 158.84L199.493 154.995L199.5 154.988Z" fill="white" stroke="#263238" stroke-miterlimit="10"/>
<path d="M223.877 191.5C223.877 191.5 224.33 193.999 224.896 194.452C225.463 194.905 227.056 194.084 227.169 193.305C227.282 192.526 226.036 190.82 225.236 190.367C224.443 189.914 223.53 190.254 223.877 191.5Z" stroke="#263238" stroke-miterlimit="10"/>
<path d="M223.877 191.5C223.877 191.5 222.56 191.153 222.043 191.733C221.526 192.314 222.56 195.55 222.949 195.812C223.339 196.074 224.889 195.684 225.017 195.358C225.144 195.033 224.932 193.079 223.877 191.5Z" fill="white" stroke="#263238" stroke-miterlimit="10"/>
<path d="M221.59 193.029C221.59 193.029 220.358 191.28 219.905 192.576C219.452 193.872 219.714 196.003 219.969 196.392C220.231 196.782 221.455 196.909 221.654 196.201C221.845 195.486 221.654 193.935 221.59 193.029Z" fill="white" stroke="#263238" stroke-miterlimit="10"/>
<path d="M219.516 193.617C219.516 193.617 218.609 192.066 217.901 193.164C217.186 194.261 217.385 196.208 217.71 196.661C218.036 197.114 218.942 196.987 219.197 196.335C219.459 195.691 219.523 193.617 219.523 193.617H219.516Z" fill="white" stroke="#263238" stroke-miterlimit="10"/>
<path d="M124.042 152.22L123.192 161.311C123.192 161.311 121.486 165.006 120.778 169.12C120.07 173.233 120.07 194.403 120.07 198.665C120.07 202.927 119.787 209.037 120.211 211.451C120.636 213.866 122.201 216.705 122.626 217.42C123.05 218.128 125.465 218.701 126.321 218.553C127.178 218.404 129.302 216.563 129.302 216.563C129.302 216.563 129.16 215.572 128.169 215.572C127.178 215.572 126.463 215.147 126.18 214.722C125.897 214.297 126.888 210.602 126.888 210.602C126.888 210.602 127.596 213.866 128.169 213.441C128.736 213.016 129.451 213.582 129.451 211.876C129.451 210.17 129.168 208.322 129.168 208.322C129.168 208.322 129.592 206.474 129.168 203.918C128.743 201.362 126.753 199.231 126.753 197.667C126.753 196.102 132.29 180.335 133.996 174.09C135.702 167.838 135.986 162.302 135.986 162.302L137.118 155.059L124.049 152.22H124.042Z" fill="white" stroke="#263238" stroke-miterlimit="10"/>
<path d="M159.626 92.7834C159.626 92.7834 161.141 100.366 159.286 104.416C157.431 108.459 148.666 113.096 146.981 114.193C145.296 115.291 134.336 117.563 129.954 124.728C125.571 131.893 123.001 152.496 123.001 153.686L139.193 157.643C139.193 157.643 138.931 165.976 138.931 168.837C138.931 171.697 134.244 181.071 132.162 197.999C130.081 214.92 138.931 255.276 138.931 255.276C138.931 255.276 138.152 266.994 137.628 274.541C137.104 282.088 138.931 312.816 138.931 312.816C138.931 312.816 137.628 318.019 136.064 319.322C134.499 320.625 129.295 323.747 129.033 325.05C128.771 326.353 129.812 326.615 131.115 327.131C132.417 327.655 150.641 327.131 150.641 327.131C150.641 327.131 152.723 325.829 152.461 321.142C152.199 316.455 152.199 314.111 152.199 314.111C152.199 314.111 153.24 309.948 153.764 307.86C154.287 305.778 154.026 302.132 154.287 299.01C154.549 295.887 157.934 254.491 157.934 250.844C157.934 247.198 162.883 205.285 162.883 205.285L166.005 250.066C166.005 250.066 167.824 309.523 168.61 311.35C169.389 313.17 170.43 314.472 170.43 314.472L169.906 317.078L170.43 321.503C170.43 321.503 169.127 327.231 170.43 327.231H186.31C186.31 327.231 188.916 324.887 187.875 322.544C186.834 320.2 185.532 317.857 185.532 317.857L183.712 312.653C183.712 312.653 185.277 309.531 185.277 307.966V300.419C185.277 296.772 188.399 244.6 188.399 244.6C188.399 244.6 191.266 220.91 192.045 203.982C192.824 187.054 188.661 175.343 187.096 171.697C185.532 168.051 185.015 164.405 185.015 164.405L185.539 156.333L187.882 160.242L205.327 154.514L195.691 127.695C195.691 127.695 190.226 119.886 187.358 117.542C184.491 115.199 177.227 113.535 174.862 111.914C173.028 110.66 171.874 102.087 171.874 102.087L159.619 92.7763L159.626 92.7834Z" fill="#5B7DE0" stroke="#263238" stroke-miterlimit="10"/>
<path d="M187.889 160.242L205.334 154.514L195.698 127.695C195.698 127.695 190.233 119.886 187.365 117.542C184.498 115.199 177.234 113.535 174.869 111.914C173.035 110.66 171.881 102.087 171.881 102.087L159.626 92.7763C159.626 92.7763 161.141 100.359 159.286 104.409C157.431 108.451 148.666 113.089 146.981 114.186C145.296 115.284 134.336 117.556 129.954 124.721C125.571 131.886 123.001 152.489 123.001 153.678L139.193 157.636C139.193 157.636 138.931 165.969 138.931 168.83C138.931 171.159 135.837 177.786 133.557 189.284C140.312 191.408 151.902 194.289 163.952 193.857C176.129 193.426 186.14 191.861 191.677 190.813C190.657 181.021 188.215 174.295 187.096 171.69C185.532 168.044 185.015 164.398 185.015 164.398L185.539 156.326L187.882 160.235L187.889 160.242Z" fill="#5B7DE0" stroke="#263238" stroke-miterlimit="10"/>
<path d="M176.837 159.038L164.646 166.918" stroke="#263238" stroke-miterlimit="10"/>
<path d="M181.46 156.057L178.954 157.672" stroke="#263238" stroke-miterlimit="10"/>
<path d="M177.609 162.012L170.947 165.863" stroke="#263238" stroke-miterlimit="10"/>
<path d="M166.748 120.657C166.748 120.657 168.851 127.667 168.851 135.377" stroke="#263238" stroke-miterlimit="10"/>
<path d="M169.609 121.38C169.609 121.776 169.29 122.095 168.894 122.095C168.497 122.095 168.178 121.776 168.178 121.38C168.178 120.983 168.497 120.664 168.894 120.664C169.29 120.664 169.609 120.983 169.609 121.38Z" stroke="#263238" stroke-miterlimit="10"/>
<path d="M170.826 126.845C170.826 127.242 170.508 127.56 170.111 127.56C169.715 127.56 169.396 127.242 169.396 126.845C169.396 126.449 169.715 126.13 170.111 126.13C170.508 126.13 170.826 126.449 170.826 126.845Z" stroke="#263238" stroke-miterlimit="10"/>
<path d="M171.322 133.033C171.717 133.033 172.037 132.713 172.037 132.318C172.037 131.923 171.717 131.603 171.322 131.603C170.927 131.603 170.607 131.923 170.607 132.318C170.607 132.713 170.927 133.033 171.322 133.033Z" stroke="#263238" stroke-miterlimit="10"/>
<path d="M161.247 117.641C167.244 120.863 173.679 117.981 177.602 113.216C176.469 112.77 175.499 112.338 174.876 111.914C173.042 110.66 171.888 102.087 171.888 102.087L159.633 92.7763C159.633 92.7763 161.148 100.359 159.293 104.409C158.457 106.228 156.22 108.168 153.863 109.853C154.79 112.091 156.829 115.269 161.247 117.641Z" fill="white" stroke="#263238" stroke-miterlimit="10"/>
<path d="M166.09 105.591C166.09 105.591 169.127 109.011 170.394 110.526C171.662 112.048 173.687 113.061 173.687 113.061L174.196 108.253L166.097 105.598L166.09 105.591Z" fill="#263238" stroke="#263238" stroke-miterlimit="10"/>
<path d="M187.528 132.488C187.861 131.214 188.179 130.081 188.179 130.081" stroke="#263238" stroke-miterlimit="10"/>
<path d="M185.546 156.341C185.546 156.341 188.179 150.861 188.307 147.377C188.434 143.894 186.813 136.679 186.813 135.809C186.813 135.582 186.905 135.101 187.04 134.506" stroke="#263238" stroke-miterlimit="10"/>
<path d="M143.646 135.058L139.54 155.208L140.906 139.412" stroke="#263238" stroke-miterlimit="10"/>
<path d="M185.546 317.864L183.726 312.66C183.726 312.66 178.324 309.092 175.634 310.246C172.943 311.4 172.37 313.708 172.37 313.708L170.451 314.487L169.927 317.092L170.451 321.517C170.451 321.517 169.148 327.245 170.451 327.245H186.331C186.331 327.245 188.937 324.901 187.896 322.558C186.855 320.214 185.553 317.871 185.553 317.871L185.546 317.864Z" fill="white" stroke="#263238" stroke-miterlimit="10"/>
<path d="M152.482 321.142C152.284 317.609 152.234 315.407 152.227 314.536L148.73 314.784C148.73 314.784 147.193 310.939 144.113 310.175C141.041 309.403 138.945 312.809 138.945 312.809C138.945 312.809 137.642 318.012 136.078 319.315C134.513 320.618 129.309 323.74 129.047 325.043C128.785 326.346 129.826 326.607 131.129 327.124C132.431 327.648 150.655 327.124 150.655 327.124C150.655 327.124 152.737 325.822 152.475 321.135L152.482 321.142Z" fill="white" stroke="#263238" stroke-miterlimit="10"/>
<path d="M156.95 85.5264C156.95 85.5264 156.107 77.1578 159.484 71.6638C162.861 66.1697 171.315 64.8174 176.979 66.5945C182.643 68.3716 187.287 73.5258 188.052 77.3278C188.81 81.1297 187.712 86.7937 187.209 88.3159C186.7 89.8381 185.602 90.5107 185.602 91.948C185.602 93.3852 185.857 97.8668 184.165 100.486C182.473 103.106 179.436 108.09 177.998 109.025C176.561 109.959 174.281 109.698 173.269 109.365C172.257 109.025 171.662 108.692 171.662 108.692C171.662 108.692 165.913 105.818 164.058 103.793C162.196 101.768 161.183 99.2262 160.256 96.9464C159.328 94.6667 158.564 91.9621 158.564 91.9621L156.957 85.5406L156.95 85.5264Z" fill="white" stroke="#263238" stroke-miterlimit="10"/>
<path d="M188.045 77.3278C187.287 73.5258 182.636 68.3716 176.972 66.5945C171.308 64.8174 162.861 66.1697 159.477 71.6638C156.1 77.1578 156.942 85.5264 156.942 85.5264L158.097 90.1355L160.999 88.4788C160.999 88.4788 163.704 87.2964 163.874 85.6892C164.044 84.0821 164.971 83.8272 166.323 82.5599C167.676 81.2926 167.846 74.1064 175.195 73.0939C181.078 72.2797 185.227 74.1842 188.165 78.0924C188.13 77.8304 188.087 77.5685 188.038 77.3207L188.045 77.3278Z" fill="#263238" stroke="#263238" stroke-miterlimit="10"/>
<path d="M161.934 94.9924C161.934 94.9924 160.582 96.3446 159.144 95.5871C157.707 94.8295 155.767 92.7976 155.342 88.8257C154.918 84.8538 157.034 83.2466 159.314 84.5989C161.594 85.9512 162.019 89.8381 162.019 89.8381" fill="white"/>
<path d="M161.934 94.9924C161.934 94.9924 160.582 96.3446 159.144 95.5871C157.707 94.8295 155.767 92.7976 155.342 88.8257C154.918 84.8538 157.034 83.2466 159.314 84.5989C161.594 85.9512 162.019 89.8381 162.019 89.8381" stroke="#263238" stroke-miterlimit="10"/>
<path d="M183.655 87.5088L181.545 88.2664C181.545 88.2664 180.448 92.4931 180.448 93.4206C180.448 94.3481 182.055 96.6349 181.8 97.4774C181.545 98.32 178.926 99.0846 178.338 98.7448" stroke="#263238" stroke-miterlimit="10"/>
<path d="M172.582 100.019C172.582 100.019 173.849 102.554 178.246 102.384" stroke="#263238" stroke-miterlimit="10"/>
<path d="M170.89 90.8931C170.89 90.8931 173.764 92.2453 176.639 91.6506" stroke="#263238" stroke-miterlimit="10"/>
<path d="M177.736 85.9017C177.736 85.9017 174.019 84.5494 171.06 85.9866" stroke="#263238" stroke-miterlimit="10"/>
<path d="M174.862 91.9904L174.437 92.5852C174.437 92.5852 174.012 92.84 172.575 92.2453" stroke="#263238" stroke-miterlimit="10"/>
<path d="M181.128 92.0117C181.128 92.0117 183.124 93.0808 185.05 92.479" stroke="#263238" stroke-miterlimit="10"/>
<path d="M183.861 92.8259L183.599 93.3498C183.599 93.3498 183.322 93.5834 182.324 93.1232" stroke="#263238" stroke-miterlimit="10"/>
<path d="M184.328 87.7637C184.328 87.7637 185.85 87.5088 186.19 88.6062" stroke="#263238" stroke-miterlimit="10"/>
<path d="M119.27 276.439C119.27 276.439 112.098 273.281 104.699 274.223C96.0331 275.327 90.4966 280.311 87.3601 287.873C84.2237 295.434 84.3441 308.915 92.3374 317.382C95.9977 321.255 100.281 324.144 104.182 325.574C107.425 326.763 110.859 327.337 114.307 327.337H166.599C170.416 327.337 173.956 325.326 175.896 322.041C178.763 317.184 182.069 309.488 180.859 301.148C178.827 287.129 169.424 283.257 168.504 282.888C167.584 282.52 119.263 276.432 119.263 276.432L119.27 276.439Z" fill="#9E9E9E" stroke="#263238" stroke-miterlimit="10"/>
<path d="M151.583 140.226C151.583 140.226 154.585 143.674 155.484 146.974C156.383 150.273 157.282 151.625 157.884 152.524C158.486 153.424 161.934 155.526 161.934 157.473C161.934 159.42 159.534 160.475 159.534 160.475C159.534 160.475 159.831 166.925 159.987 168.879C160.135 170.826 160.44 171.732 159.385 172.78C158.33 173.828 156.086 175.032 156.086 175.032C156.086 175.032 148.885 182.685 147.986 183.584C147.087 184.484 126.682 176.533 126.682 176.533C126.682 176.533 127.284 174.586 127.73 173.531L128.183 172.483C128.183 172.483 121.585 160.185 120.084 153.884C118.583 147.583 128.636 138.279 131.936 136.184C135.235 134.081 145.89 134.683 148.737 134.98C151.583 135.278 152.935 135.731 152.935 137.38V139.03L154.733 138.428C154.733 138.428 153.983 140.828 151.583 140.226Z" fill="white" stroke="#263238" stroke-linecap="round" stroke-linejoin="round"/>
<path d="M146.931 140.226C149.331 140.375 151.583 140.226 151.583 140.226C153.983 140.828 154.733 138.428 154.733 138.428L152.935 139.03V137.38C152.935 135.731 151.583 135.278 148.737 134.98C145.883 134.683 135.235 134.081 131.936 136.184C128.636 138.287 118.583 147.583 120.084 153.884C121.585 160.185 128.183 172.483 128.183 172.483C128.183 172.483 129.231 172.483 132.53 171.435C135.83 170.387 137.033 166.033 137.033 166.033C137.033 166.033 133.281 164.681 132.382 163.18C131.483 161.679 132.53 156.73 134.329 156.128C136.127 155.526 138.832 157.629 139.582 157.778C140.333 157.926 140.63 157.325 141.232 156.426C141.834 155.526 140.934 154.174 140.934 153.424C140.934 152.673 144.538 148.623 145.282 146.974C146.032 145.324 140.184 142.173 140.481 140.673C140.779 139.172 144.531 140.071 146.931 140.219V140.226Z" fill="#263238" stroke="#263238" stroke-linecap="round" stroke-linejoin="round"/>
<path d="M151.427 175.032C151.427 175.032 147.377 175.329 143.929 173.233C140.481 171.131 140.028 169.184 140.028 169.184" stroke="#263238" stroke-linecap="round" stroke-linejoin="round"/>
<path d="M151.731 163.18C151.731 163.18 153.084 164.978 156.383 164.829" stroke="#263238" stroke-linecap="round" stroke-linejoin="round"/>
<path d="M155.293 152.206C155.583 153.07 155.512 153.87 155.123 154.004C154.733 154.139 154.181 153.544 153.891 152.687C153.6 151.831 153.671 151.023 154.061 150.889C154.45 150.754 155.002 151.349 155.293 152.206Z" fill="#263238"/>
<path d="M151.611 149.947C151.611 149.947 152.673 147.823 154.797 148.567" stroke="#263238" stroke-linecap="round" stroke-linejoin="round"/>
<path d="M212.591 312.186C212.591 312.186 214.177 317.276 218.389 320.278C222.609 323.28 228.62 324.094 229.689 325.014C230.758 325.928 228.925 326.997 228.925 326.997H204.343L204.187 312.646L212.584 312.186H212.591Z" fill="#263238" stroke="#263238" stroke-miterlimit="10"/>
<path d="M205.412 253.245C205.412 253.245 213.349 251.262 214.573 252.784C215.798 254.314 218.545 295.08 219.614 302.252C220.684 309.431 220.379 311.57 220.379 311.57L205.263 315.846C205.263 315.846 201.752 297.827 197.935 290.804C194.119 283.781 186.636 266.222 191.677 259.808C196.718 253.393 205.419 253.245 205.419 253.245H205.412Z" fill="#263238" stroke="#263238" stroke-miterlimit="10"/>
<path d="M156.114 188.54C156.114 188.54 168.277 189.815 171.102 189.532C173.927 189.248 178.458 187.124 185.949 186.983C193.447 186.841 223.848 186.133 226.956 186.133C230.065 186.133 246.405 185.489 246.405 185.489C246.405 185.489 254.745 184.923 254.186 186.055C253.62 187.188 251.92 187.896 249.945 188.321C247.963 188.746 245.704 189.737 245.704 189.737L242.03 190.728C242.03 190.728 244.855 191.436 245.704 191.436C246.554 191.436 249.945 192.003 249.237 192.711C248.529 193.419 248.246 193.702 246.412 193.702C244.579 193.702 242.03 193.135 241.039 193.135C240.047 193.135 238.773 193.702 236.231 193.985C233.682 194.268 227.813 194.063 227.813 194.063L217.49 195.479C217.49 195.479 198.12 200.853 189.631 203.26C181.149 205.667 177.326 205.809 177.326 205.809C177.326 205.809 174.076 206.233 165.729 207.649C157.388 209.065 145.933 208.357 145.933 208.357L156.114 188.562V188.54Z" fill="#263238" stroke="#263238" stroke-linecap="round" stroke-linejoin="round"/>
<path d="M125.5 174.465C125.5 174.465 152.652 183.514 156.61 186.346C160.567 189.171 164.95 204.449 165.516 210.531C166.083 216.613 170.89 236.691 171.315 246.589C171.739 256.487 170.465 255.071 170.465 255.071C170.465 255.071 140.764 260.728 134.831 262.71C128.891 264.693 119.135 274.874 118.852 274.449C118.569 274.024 118.569 265.826 119.701 261.153C120.834 256.48 121.825 244.324 121.825 244.324C121.825 244.324 115.885 220.705 115.602 213.073C115.319 205.433 118.71 188.746 120.268 183.797C121.825 178.848 124.509 174.041 125.5 174.465Z" fill="white" stroke="#263238" stroke-linecap="round" stroke-linejoin="round"/>
<path d="M151.597 205.617L167.803 229.173C167.803 229.173 163.959 211.635 163.959 210.963C163.959 210.29 163.789 203.777 163.789 203.777L151.597 205.617Z" fill="#263238" stroke="#263238" stroke-linecap="round" stroke-linejoin="round"/>
<path d="M156.617 186.346C156.617 186.346 168.78 187.62 171.605 187.337C174.43 187.054 178.961 184.93 186.452 184.788C193.949 184.646 224.351 183.938 227.459 183.938C230.567 183.938 246.412 185.496 246.412 185.496C246.412 185.496 254.752 184.93 254.193 186.062C253.627 187.195 251.928 187.903 249.952 188.328C247.97 188.753 245.711 189.744 245.711 189.744L242.037 190.735C242.037 190.735 244.862 191.443 245.711 191.443C246.561 191.443 249.952 192.01 249.244 192.718C248.536 193.426 248.253 193.709 246.419 193.709C244.586 193.709 242.037 193.142 241.046 193.142C240.054 193.142 238.78 193.709 236.238 193.992C233.689 194.275 228.316 191.868 228.316 191.868L217.993 193.284C217.993 193.284 198.622 198.658 190.133 201.065C181.651 203.472 177.828 203.614 177.828 203.614C177.828 203.614 174.579 204.039 166.231 205.455C157.891 206.871 146.436 206.163 146.436 206.163L156.617 186.367V186.346Z" fill="white" stroke="#263238" stroke-linecap="round" stroke-linejoin="round"/>
<path d="M250.653 187.337C250.653 187.337 247.12 187.762 246.271 188.045C245.421 188.328 242.738 189.178 240.897 189.461C239.056 189.744 236.939 190.027 236.939 190.027C236.939 190.027 234.39 191.585 231.707 191.16C229.024 190.735 228.316 189.886 228.316 189.886" stroke="#263238" stroke-miterlimit="10"/>
<path d="M128.474 186.062C128.474 186.062 138.379 184.023 143.179 183.797C147.979 183.577 158.875 187.188 158.875 187.188L144.17 210.382C144.17 210.382 132.431 209.816 131.865 209.816" fill="white"/>
<path d="M128.474 186.062C128.474 186.062 138.379 184.023 143.179 183.797C147.979 183.577 158.875 187.188 158.875 187.188L144.17 210.382C144.17 210.382 132.431 209.816 131.865 209.816" stroke="#263238" stroke-linecap="round" stroke-linejoin="round"/>
<path d="M142.896 211.798C142.896 211.798 139.504 227.495 130.166 236.267" stroke="#263238" stroke-miterlimit="10"/>
<path d="M146.719 208.973C146.719 208.973 145.586 218.73 141.062 229.335" stroke="#263238" stroke-miterlimit="10"/>
<path d="M127.567 261.5C127.567 261.5 138.818 257.627 147.483 256.891" stroke="#263238" stroke-miterlimit="10"/>
<path d="M145.827 255.05C145.827 255.05 152.836 254.498 157.629 255.602" stroke="#263238" stroke-miterlimit="10"/>
<path d="M140.496 230.751C140.496 230.751 139.646 233.017 138.938 234.567" stroke="#263238" stroke-miterlimit="10"/>
<path d="M151.809 209.54C151.809 209.54 153.225 217.604 153.509 222.694" stroke="#263238" stroke-miterlimit="10"/>
<path d="M198.346 314.43C198.346 314.43 198.346 326.459 198.962 326.976C199.578 327.492 202.254 327.386 202.559 327.386H225.689C225.689 327.386 227.537 327.075 227.643 325.843C227.749 324.611 223.02 323.273 222.602 323.273C222.185 323.273 209.136 316.179 208.725 315.563C208.315 314.947 207.288 312.171 207.288 312.171L198.346 314.43Z" fill="white" stroke="#263238" stroke-miterlimit="10"/>
<path d="M169.247 289.168C169.247 289.168 184.193 285.926 190.756 280.885L187.705 274.775L169.247 289.168Z" fill="#263238" stroke="#263238" stroke-linecap="round" stroke-linejoin="round"/>
<path d="M118.859 274.449C118.859 274.449 119.085 280.68 122.958 284C126.831 287.321 138.817 289.345 143.986 289.161C149.147 288.977 169.254 289.161 169.254 289.161C169.254 289.161 174.047 287.505 177.184 285.841C180.32 284.184 187.145 279.384 187.145 279.384C187.145 279.384 188.618 288.234 189.362 291.37C190.098 294.507 194.891 308.709 194.891 308.709L196.18 316.087L216.648 311.662C216.648 311.662 214.807 298.011 213.511 288.425C212.223 278.832 208.35 258.179 207.239 254.675C206.134 251.17 206.318 251.17 203.182 251.17C200.045 251.17 188.979 252.09 177.913 253.57C166.847 255.043 153.756 256.891 143.979 259.291C134.201 261.691 140.658 259.843 132.729 263.164C124.799 266.484 118.852 274.449 118.852 274.449H118.859Z" fill="#5B7DE0" stroke="#263238" stroke-miterlimit="10"/>
<path d="M187.138 279.391C187.138 279.391 188.243 274.598 189.907 272.198C191.563 269.798 194.7 267.036 194.7 267.036" stroke="#263238" stroke-miterlimit="10"/>
<path d="M193.595 265.741C193.595 265.741 188.802 268.877 187.506 272.198" stroke="#263238" stroke-miterlimit="10"/>
<path d="M208.35 270.909C208.35 270.909 204.661 284 202.077 288.984" stroke="#263238" stroke-miterlimit="10"/>
<path d="M208.166 278.471C208.166 278.471 205.398 301.339 202.077 307.796" stroke="#263238" stroke-miterlimit="10"/>
<path d="M132.36 275.702C132.36 275.702 138.265 265.557 145.451 260.948" stroke="#263238" stroke-miterlimit="10"/>
<path d="M139.922 262.236C139.922 262.236 136.417 265.741 134.76 268.693" stroke="#263238" stroke-miterlimit="10"/>
<path d="M9.43054 327.393H339.337" stroke="#263238" stroke-miterlimit="10"/>
</svg>
