<svg width="390" height="436" viewBox="0 0 390 436" fill="none" xmlns="http://www.w3.org/2000/svg">
<path d="M-557 339.38L-297.085 13.892C-290.184 5.25029 -277 5.39384 -270.289 14.1838L-100.513 236.553C-99.8393 237.435 -99.0808 238.25 -98.2484 238.984L31.9203 353.839C51.4846 371.102 82.0719 365.315 93.9778 342.098L175.614 182.907C190.916 153.069 232.964 151.449 250.516 180.022L277.135 223.355C289.631 243.698 308.993 258.898 331.72 266.209L505.114 321.986C508.916 323.209 513.028 323.055 516.727 321.549L738.166 231.434C747.459 227.652 757.987 232.698 760.862 242.309L818 433.38" stroke="#2D59F0" stroke-opacity="0.1" stroke-width="15"/>
</svg>
